<svg width="100" height="100" viewBox="0 0 100 100" fill="none" xmlns="http://www.w3.org/2000/svg">
<path d="M79.1667 8.33337C79.1667 14.6851 77.7132 16.5653 75.5859 18.5303C71.6673 14.6745 64.4347 8.89807 55.835 8.37406C49.5433 7.99906 43.8294 10.3789 38.7044 15.4623C37.9544 16.2123 37.5417 17.212 37.5 18.2536V18.2943C38.0833 20.5026 41.6702 32.2465 54.7119 45.2881C67.6286 58.2048 79.291 61.8334 81.6243 62.5H81.7057C82.7474 62.4584 83.7461 62.0873 84.5378 61.2956C89.6211 56.2123 92.001 50.4965 91.626 44.2465C91.1299 35.5964 85.2833 28.3046 81.4128 24.3734C84.2106 21.3823 87.5 16.7037 87.5 8.33337H79.1667ZM30.5827 23.9991C30.1243 24.4157 29.7064 24.8347 29.248 25.293C18.123 36.543 12.5 49.0417 12.5 62.5C12.5 67.4167 14.2119 71.2497 16.1702 74.6664C15.8786 75.958 13.9167 79.4548 12.5 81.7465L18.2048 87.5C20.4548 86.125 24.0003 84.1703 25.3337 83.8786C29.3337 86.1703 32.6667 87.5 37.5 87.5C50.5417 87.5 63.2106 81.6228 74.2106 70.5811C74.5023 70.2894 74.9548 69.7891 75.4964 69.2058C69.7464 67.0391 59.6696 61.9971 48.8363 51.1638C37.6696 39.9971 32.666 29.6241 30.5827 23.9991Z" fill="black"/>
</svg>
