<svg xmlns="http://www.w3.org/2000/svg"  aria-hidden="true" focusable="false" role="presentation" class="icon icon-tcwi-ribbon" viewbox="0 0 100 100"><path d="M44.18 67.51 30 89.72l-4.44-12.19-12.93 1.1 14.19-22.18a28.86 28.86 0 0 0 13.79 10.08 26.93 26.93 0 0 0 3 .85Zm43.19 11.12-12.93-1.1L70 89.72 55.81 67.51l.63-.13a26.76 26.76 0 0 0 2.94-.85 28.8 28.8 0 0 0 13.8-10.08Z"></path><path d="M78.92 39.19a28.82 28.82 0 0 1-3.61 14 30 30 0 0 1-1.74 2.73 5 5 0 0 1-.39.52 28.8 28.8 0 0 1-13.79 10.09 26.76 26.76 0 0 1-2.94.85l-.63.13a29 29 0 0 1-11.63 0l-.62-.13a26.93 26.93 0 0 1-3-.85 28.86 28.86 0 0 1-13.75-10.08c-.13-.17-.26-.34-.38-.52q-.93-1.32-1.74-2.73a28.92 28.92 0 1 1 54.22-14Z"></path><path d="m56.95 42.84 1.63 9.55L50 47.88l-8.58 4.51 1.64-9.55-6.95-6.77 9.6-1.39 4.29-8.7 4.29 8.7 9.6 1.39z"></path></svg>
