<svg xmlns="http://www.w3.org/2000/svg"  aria-hidden="true" focusable="false" role="presentation" class="icon icon-gift" viewbox="0 0 64 64"><path d="M9 20.23h46v8.68H9zm4.34 8.68h36.89v24.3H13.34zm14.48-8.25v32.98m8.09-32.76v32.98M20.52 11.43a3.73 3.73 0 0 0-.74 2.87 4.57 4.57 0 0 0 .8 2.27C22 18.09 25.15 20 32 20.23a12 12 0 0 0-2.43-7 7.52 7.52 0 0 0-5.66-3.12 4 4 0 0 0-3.39 1.32"></path><path d="M43.37 11.43a3.73 3.73 0 0 1 .74 2.87 4.48 4.48 0 0 1-.8 2.27c-1.42 1.52-4.57 3.41-11.42 3.66a12.08 12.08 0 0 1 2.43-7A7.56 7.56 0 0 1 40 10.14a4 4 0 0 1 3.37 1.29"></path></svg>
