<svg width="100" height="100" viewBox="0 0 100 100" fill="none" xmlns="http://www.w3.org/2000/svg">
<path d="M49.9995 6.66663C35.2729 6.66663 23.3329 18.6066 23.3329 33.3333C23.3329 53.3333 46.6662 60 46.6662 73.3333C46.6662 75.1733 48.1595 76.6666 49.9995 76.6666C51.8395 76.6666 53.3329 75.1733 53.3329 73.3333C53.3329 60 76.6662 53.3333 76.6662 33.3333C76.6662 18.6066 64.7262 6.66663 49.9995 6.66663ZM49.9995 26.6666C53.6829 26.6666 56.6662 29.65 56.6662 33.3333C56.6662 37.0166 53.6829 40 49.9995 40C46.3162 40 43.3329 37.0166 43.3329 33.3333C43.3329 29.65 46.3162 26.6666 49.9995 26.6666ZM19.9995 56.6666C18.6095 56.6666 17.3645 57.5314 16.8745 58.8281L6.87452 85.4947C6.49119 86.5214 6.63864 87.6611 7.25864 88.5611C7.8853 89.4611 8.90619 90 9.99952 90H89.9995C91.0929 90 92.1171 89.4611 92.7404 88.5611C93.3637 87.6645 93.5079 86.5214 93.1245 85.4947L83.1245 58.8281C82.6345 57.5314 81.3895 56.6666 79.9995 56.6666H73.411C71.5843 58.7066 69.6994 60.5708 67.9227 62.3242C67.5727 62.6642 67.2372 63 66.9006 63.3333H77.6883L85.1883 83.3333H14.8107L22.3107 63.3333H33.0985C32.7618 63 32.4295 62.6642 32.0829 62.3242C30.3029 60.5708 28.4147 58.7066 26.5881 56.6666H19.9995Z" fill="black"/>
</svg>
