<svg width="100" height="100" viewBox="0 0 100 100" fill="none" xmlns="http://www.w3.org/2000/svg">
<path d="M67.1873 0.1875L60.3748 18.1875L42.9998 9.375L50.9998 27L32.6248 33L48.6873 39.3125L35.5623 52.5625C35.4139 52.7109 35.2889 52.875 35.1873 53.0625L3.9998 84.1875C1.39823 86.9844 1.60136 91.2109 3.9998 93.8125L6.1873 96C7.58573 97.2031 9.39823 98 10.9998 98C12.7967 98 14.4139 97.3984 15.8123 96L47.0623 64.75L47.4373 64.4375L51.9998 59.8125L59.9373 51.9375L65.3748 67.375L72.3748 49.625L89.3748 58.1875L81.6248 40.8125L99.9998 34.625L81.9998 27.625L90.8123 10.625L73.1873 18.375L67.1873 0.1875ZM62.6248 32.1875C63.3826 32.1875 63.9373 32.375 64.5623 33L64.6248 33.0625L66.9373 35.125C68.0701 36.3828 68.0154 38.1719 66.9998 39.1875L49.1873 57L42.9998 50.8125L60.6248 33C61.2498 32.375 61.867 32.1875 62.6248 32.1875ZM81.9998 66.375L77.6248 77.625L66.3748 82L77.6248 86.375L81.9998 97.625L86.3748 86.375L97.6248 82L86.3748 77.625L81.9998 66.375ZM56.3748 68L54.3748 73L49.3748 75L54.3748 77L56.3748 82L58.3748 77L63.3748 75L58.3748 73L56.3748 68Z" fill="black"/>
</svg>
