<svg xmlns="http://www.w3.org/2000/svg"  aria-hidden="true" focusable="false" role="presentation" class="icon icon-ribbon" viewbox="0 0 64 64"><path d="m28.57 42.31-8.36 13.07-2.6-7.17-7.61.65 8.35-13.07a17.05 17.05 0 0 0 8.12 5.94 17.3 17.3 0 0 0 1.74.5ZM54 48.86l-7.61-.65-2.61 7.17-8.36-13.07.37-.08a16.4 16.4 0 0 0 1.73-.5 17 17 0 0 0 8.12-5.93Z"></path><path d="M49 25.64a16.79 16.79 0 0 1-3.14 9.85 3.55 3.55 0 0 1-.23.31 17 17 0 0 1-8.12 5.93 16.4 16.4 0 0 1-1.73.5l-.37.08a16.74 16.74 0 0 1-3.42.35 16.91 16.91 0 0 1-3.43-.35l-.36-.08a17.3 17.3 0 0 1-1.74-.5 17.05 17.05 0 0 1-8.12-5.94c-.07-.09-.15-.19-.22-.3A16.86 16.86 0 0 1 15 25.64a17 17 0 0 1 34 0"></path><path d="m36.09 27.78.96 5.63L32 30.75l-5.05 2.66.96-5.63-4.09-3.98 5.65-.82L32 17.86l2.53 5.12 5.64.82z"></path></svg>
