<svg xmlns="http://www.w3.org/2000/svg"  aria-hidden="true" focusable="false" role="presentation" class="icon icon-tcwi-gears" viewbox="0 0 100 100"><path d="M51.11 53a18.75 18.75 0 0 0 .67-3.35l6.37-1.51L55.27 36l-6.37 1.56a18.51 18.51 0 0 0-4.68-5l1.87-6.28-11.9-3.55L32.32 29a18.68 18.68 0 0 0-6.62 1.59l-4.5-4.76-9 8.53 4.5 4.76a18.36 18.36 0 0 0-2 6.52l-6.35 1.57 2.88 12.08 6.37-1.51a18.62 18.62 0 0 0 4.67 4.95L20.4 69l11.91 3.55 1.87-6.27a18.67 18.67 0 0 0 6.62-1.58l4.5 4.76 9-8.53-4.5-4.76A19.38 19.38 0 0 0 51.11 53"></path><circle cx="33.25" cy="47.67" r="9.13"></circle><path d="M84.49 35.6a11.31 11.31 0 0 0 .88-1.91h4v-7.63h-4a11.44 11.44 0 0 0-2.09-3.62l2-3.48-6.61-3.81-2 3.48a11.3 11.3 0 0 0-4.18 0l-2-3.48L63.86 19l2 3.49a11.22 11.22 0 0 0-1.22 1.71 12.09 12.09 0 0 0-.87 1.91h-4v7.63h4a11.63 11.63 0 0 0 2.09 3.62l-2 3.48 6.61 3.81 2-3.48a11.3 11.3 0 0 0 4.18 0l2 3.48 6.6-3.81-2-3.49a11.17 11.17 0 0 0 1.24-1.75"></path><circle cx="74.58" cy="29.89" r="5.61"></circle><path d="M86.57 70.8a13.56 13.56 0 0 0 .49-2.41l4.59-1.08-2.05-8.7-4.6 1.08a13.3 13.3 0 0 0-3.36-3.58L83 51.6 74.45 49l-1.36 4.51a13.38 13.38 0 0 0-4.77 1.13l-3.23-3.44-6.52 6.13 3.23 3.43a13.19 13.19 0 0 0-.92 2.29 13.56 13.56 0 0 0-.49 2.41l-4.59 1.1 2.05 8.7 4.59-1.08a13.42 13.42 0 0 0 3.35 3.58l-1.35 4.51L73 84.85l1.36-4.51a13.38 13.38 0 0 0 4.77-1.13l3.23 3.44 6.52-6.13-3.23-3.44a12.78 12.78 0 0 0 .92-2.28"></path><circle cx="73.72" cy="66.93" r="6.58"></circle></svg>
