<svg xmlns="http://www.w3.org/2000/svg"  aria-hidden="true" focusable="false" role="presentation" class="icon icon-tcwi-phone" viewbox="0 0 100 100"><path d="M80.63 63.49 67.77 59.9a6.69 6.69 0 0 0-.75-.16h-.33a5.65 5.65 0 0 0-4.43 1.5l-3.95 3.66-.2.2c-.31.32-1.89 1.75-4.34.05l-.22-.15a73.21 73.21 0 0 1-19.1-19.2s-1.35-2 .17-3.56l4.24-4.48.17-.17c.3-.29 1.69-1.87.92-5.22l-3.37-12.71a5.77 5.77 0 0 0-1-2.1 5.31 5.31 0 0 0-3.16-1.95h-.25a22.6 22.6 0 0 0-6.35-.5 5.69 5.69 0 0 0-1.8.55 16.31 16.31 0 0 0-9 14.7 44 44 0 0 0 2 12 54.47 54.47 0 0 0 9.2 16.66s9.33 12.22 21.66 19.57a63.37 63.37 0 0 0 14.8 5.93s7 1.65 12.59-.54c0 0 7-2.43 9.5-8.56a5.37 5.37 0 0 0 .39-1.85 21.32 21.32 0 0 0-.77-5.8s-1.04-3.55-3.76-4.28"></path></svg>
