<svg xmlns="http://www.w3.org/2000/svg"  aria-hidden="true" focusable="false" role="presentation" class="icon icon-tcwi-gift" viewbox="0 0 100 100"><path d="M13.35 30.07h73.29v15.11H13.35zm4.53 15.11h64.23V87.5H17.88zM50 30.07V87.5M29.63 15.42a6.59 6.59 0 0 0-.81 4.33 7.75 7.75 0 0 0 1.39 3.94c2.48 2.65 8 5.94 19.88 6.38a21 21 0 0 0-4.26-12.2A13.13 13.13 0 0 0 36 12.51c-2.37-.09-4.89.49-6.37 2.91"></path><path d="M69.9 14.75a6.55 6.55 0 0 1 1.29 5 8 8 0 0 1-1.39 4c-2.49 2.65-8 5.94-19.89 6.38a20.93 20.93 0 0 1 4.22-12.14A13.12 13.12 0 0 1 64 12.51a6.94 6.94 0 0 1 5.9 2.24"></path></svg>
