<svg xmlns="http://www.w3.org/2000/svg"  aria-hidden="true" focusable="false" role="presentation" class="icon icon-tcwi-bills" viewbox="0 0 100 100"><path d="M16.96 11.72h66.08v70.76l-6.62 5.8-6.61-5.8-6.61 5.8-6.61-5.8-6.61 5.8-6.6-5.8-6.61 5.8-6.61-5.8-6.6 5.8-6.6-5.8V11.72zm7.01 22.88h49.36M23.97 46.28h49.01M23.97 57.96h28.57M23.97 69.64h28.57"></path><path d="M61.63 66.87c0 2.69 4.18 2.51 4.18 2.51s4.19.27 4.19-3.23c0-2.27-4.16-2.25-4.16-2.25-4.85 0-4.16-3.33-4.16-3.33 0-3.74 4.22-3.43 4.22-3.43 4.51 0 4.08 3.43 4.08 3.43m-4.18-7.54v20.46M23.97 23.41h49.36"></path></svg>
