<svg xmlns="http://www.w3.org/2000/svg"  aria-hidden="true" focusable="false" role="presentation" class="icon icon-tcwi-globe" viewbox="0 0 100 100"><path d="M82.19 69.25a13.09 13.09 0 0 1-3.54-3 1.86 1.86 0 0 1 0-2.38c1.29-1.52 3.08-5-4.17-7.52a5.28 5.28 0 0 0-2.24 0 12.36 12.36 0 0 1-5.49 0 9.78 9.78 0 0 1-4.1-2.16c-.23-.2-.44-.41-.65-.63a10.08 10.08 0 0 1-2.17-10l.15-.46a8.09 8.09 0 0 0-3.92-9.55l-1.83-1c-3.54-1.58-5.69-3.88-6.39-6.83-1-4-.14-7.55 4.46-13.15M32 17.1a13 13 0 0 1 3.52 7.23 9.74 9.74 0 0 1-.52 4.76 11.74 11.74 0 0 1-2.16 3.61 10.49 10.49 0 0 0-1.72 2.73c-.62 1.51-1.12 3.44-.61 4.91a4 4 0 0 0 2.75 2.33c.25.08.52.16.8.23a5.11 5.11 0 0 1 4.24 4.65c.13 2-.82 4.29-2.68 6.44a17.84 17.84 0 0 1-6.76 4.78A15.87 15.87 0 0 1 23 59.93a14.39 14.39 0 0 1-3.14-.35c-3.45-.77-3.73-1.39-6.86-3.58m19.12 27c-.18-2.75-2.68-8.09.69-13.4a22.33 22.33 0 0 1 8.36-7.36c3.48-1.79 6.77-2.37 9-1.58a4.61 4.61 0 0 1 3.08 5.12v.83a4 4 0 0 0 1.21 3.3c1.49 1.26 4.42 1.3 6.66.91a2.55 2.55 0 0 0 .59-.18A12.09 12.09 0 0 1 67 69.43a9.74 9.74 0 0 1 4.51 1.2 12.61 12.61 0 0 1 5.41 5.51"></path><circle cx="50" cy="50" r="37.5"></circle></svg>
