<svg width="100" height="100" viewBox="0 0 100 100" fill="none" xmlns="http://www.w3.org/2000/svg">
<path d="M68.1833 13.3334C56.6667 13.3334 50 23.3334 50 23.3334C50 23.3334 43.3333 13.3334 31.8167 13.3334C19.7667 13.3334 10 23.1 10 35.15C10 56.2867 34.7367 76.5034 45.9867 85.3234C45.9867 85.3234 47.82 86.6667 50 86.6667C52.18 86.6667 54.0133 85.3234 54.0133 85.3234C65.2633 76.5034 90 56.2867 90 35.15C90 23.1 80.2333 13.3334 68.1833 13.3334ZM47.6833 67.76L28.9633 37.0934C27.9567 35.4467 29.1433 33.3334 31.0733 33.3334H34.5967C35.8733 33.3334 37.0433 34.0367 37.6467 35.16L48.9 56.1667C49.37 57.0467 50.6333 57.0467 51.1033 56.1667L62.3567 35.16C62.9567 34.0367 64.13 33.3334 65.4033 33.3334H68.9267C70.8567 33.3334 72.0433 35.4467 71.0367 37.0934L52.3167 67.76C51.26 69.4934 48.74 69.4934 47.6833 67.76Z" fill="black"/>
</svg>
