<svg width="100" height="100" viewBox="0 0 100 100" fill="none" xmlns="http://www.w3.org/2000/svg">
<path d="M65.6038 24.7292L72.583 10.7708C73.0622 9.8125 73.0205 8.64583 72.458 7.72917C71.8747 6.8125 70.8747 6.25 69.7913 6.25H30.208C29.1247 6.25 28.1247 6.8125 27.5413 7.72917C26.9788 8.64583 26.9372 9.8125 27.4163 10.7708L34.3955 24.7292C33.2288 25.4375 31.8122 26.3958 30.333 27.625L36.4372 39.8542L49.3955 41.6875C50.3955 41.8333 51.2497 42.4583 51.7288 43.3333C52.1872 44.2292 52.208 45.2917 51.7497 46.1875L44.8122 60.0625L50.3538 62.8333C51.6663 63.4792 52.3538 64.9583 51.9997 66.375L49.9163 74.7083C49.5622 76.125 48.2705 77.0833 46.8747 77.0833C46.6247 77.0833 46.3747 77.0625 46.1247 77C44.4372 76.5625 43.4163 74.875 43.833 73.2083L45.3122 67.2917L39.2288 64.25C37.6872 63.4792 37.0622 61.6042 37.833 60.0625L44.2288 47.2708L33.9372 45.8125C32.9163 45.6667 32.0413 45.0208 31.583 44.1042L25.7288 32.3958C22.9997 36.0208 20.833 40.7917 20.833 46.875C20.833 68.875 29.833 83.2292 33.6872 89.375C35.4163 92.1042 38.3747 93.75 41.6247 93.75H58.3747C61.6247 93.75 64.583 92.1042 66.3122 89.375C70.1663 83.2292 79.1663 68.875 79.1663 46.875C79.1663 34.5833 70.3538 27.6042 65.6038 24.7292Z" fill="black"/>
</svg>
