<svg width="100" height="100" viewBox="0 0 100 100" fill="none" xmlns="http://www.w3.org/2000/svg">
<path d="M50.1303 6.66663C47.1803 6.66663 44.3378 7.65595 42.0378 9.47262C41.3612 9.36595 40.6736 9.31637 39.9936 9.31637C34.6036 9.31637 29.8218 12.5889 27.8451 17.5455C22.1151 19.7322 18.6936 25.5674 19.5769 31.6341C15.7169 36.3941 15.6761 43.1522 19.4727 47.9622C18.5094 54.0122 21.8458 59.8947 27.5392 62.1614C28.6514 65.0685 30.7382 67.3768 33.3334 68.8411V90C33.3334 90.884 33.6846 91.7319 34.3097 92.357C34.9349 92.9821 35.7827 93.3333 36.6668 93.3333C37.5222 93.3335 38.345 93.0049 38.9649 92.4153C38.9737 92.4067 38.9823 92.398 38.991 92.3893L50.0001 83.3333L61.0352 92.4153C61.0374 92.4153 61.0396 92.4153 61.0418 92.4153C61.66 93.0033 62.4802 93.3319 63.3334 93.3333C64.2175 93.3333 65.0653 92.9821 65.6904 92.357C66.3156 91.7319 66.6668 90.884 66.6668 90V68.8281C69.0992 67.3848 71.0636 65.1894 72.155 62.4544C77.8817 60.2644 81.3066 54.4292 80.4233 48.3658C84.2833 43.6058 84.3241 36.8477 80.5274 32.0377C81.4908 25.9877 78.1478 20.1052 72.4545 17.8385C70.5212 12.7852 65.711 9.44006 60.241 9.44006C59.6143 9.44006 58.9893 9.48678 58.366 9.57678C56.0426 7.69345 53.1436 6.66663 50.1303 6.66663ZM50.1303 13.3333C51.687 13.3333 53.2461 13.8962 54.4727 15.0195L56.3868 16.7708L58.9259 16.2434C59.3659 16.1534 59.8076 16.1067 60.241 16.1067C62.991 16.1067 65.5041 17.8854 66.3608 20.6054L67.142 23.0794L69.6095 23.8932C72.7428 24.9265 74.5806 28.1602 73.8673 31.3802L73.3074 33.9192L75.0391 35.8528C77.2358 38.3128 77.2072 42.0393 74.9806 44.4726L73.2293 46.3802L73.7631 48.9257C74.4364 52.1557 72.5478 55.3641 69.4011 56.3541L66.9207 57.1354L66.1069 59.6028C65.2235 62.2795 62.7298 64.0169 60.0131 64.0169C59.5531 64.0169 59.0899 63.964 58.6199 63.8606L56.0808 63.3007L54.1472 65.0325C52.9239 66.1258 51.3965 66.6666 49.8699 66.6666C48.3132 66.6666 46.7541 66.1038 45.5274 64.9804L43.6134 63.2291L41.0743 63.7565C40.6343 63.8465 40.1925 63.8932 39.7592 63.8932C37.0092 63.8932 34.4961 62.1145 33.6394 59.3945L32.8582 56.9205L30.3907 56.1067C27.2574 55.0734 25.4196 51.8397 26.1329 48.6198L26.6928 46.0807L24.9675 44.1406C22.7709 41.6806 22.793 37.9606 25.0196 35.5273L26.7709 33.6132L26.2436 31.0677C25.5702 27.8377 27.4589 24.6293 30.6056 23.6393L33.086 22.858L33.8998 20.3906C34.7832 17.7139 37.2769 15.9765 39.9936 15.9765C40.4536 15.9765 40.9233 16.0294 41.3933 16.1328L43.9259 16.6927L45.8595 14.9609C47.0761 13.8742 48.6036 13.3333 50.1303 13.3333ZM50.0001 23.3333C45.5798 23.3333 41.3406 25.0892 38.215 28.2148C35.0894 31.3405 33.3334 35.5797 33.3334 40C33.3334 44.4202 35.0894 48.6595 38.215 51.7851C41.3406 54.9107 45.5798 56.6666 50.0001 56.6666C54.4204 56.6666 58.6596 54.9107 61.7852 51.7851C64.9108 48.6595 66.6668 44.4202 66.6668 40C66.6668 35.5797 64.9108 31.3405 61.7852 28.2148C58.6596 25.0892 54.4204 23.3333 50.0001 23.3333Z" fill="black"/>
</svg>
