<svg width="100" height="100" viewBox="0 0 100 100" fill="none" xmlns="http://www.w3.org/2000/svg">
<path d="M50 6.64062L47.168 13.0859L37.0117 35.8398L12.207 38.4766L5.17578 39.2578L10.4492 43.9453L28.9062 60.6445L23.7305 85.0586L22.2656 91.8945L28.418 88.3789L50 75.8789L71.582 88.3789L77.7344 91.8945L76.2695 85.0586L71.0938 60.6445L89.5508 43.9453L94.8242 39.2578L87.793 38.4766L62.9883 35.8398L52.832 13.0859L50 6.64062ZM50 21.9727L58.0078 40.0391L58.7891 41.6992L60.5469 41.8945L80.1758 43.9453L65.5273 57.1289L64.1602 58.3984L64.5508 60.1562L68.6523 79.3945L51.5625 69.6289L50 68.6523L48.4375 69.6289L31.3477 79.3945L35.4492 60.1562L35.8398 58.3984L34.4727 57.1289L19.8242 43.9453L39.4531 41.8945L41.2109 41.6992L41.9922 40.0391L50 21.9727Z" fill="black"/>
</svg>
