<svg xmlns="http://www.w3.org/2000/svg"  aria-hidden="true" focusable="false" role="presentation" class="icon icon-tcwi-wallet" viewbox="0 0 100 100"><path d="M69.36 55.8a2.45 2.45 0 1 1-2.45 2.45 2.45 2.45 0 0 1 2.45-2.45"></path><path d="M61.77 58.24a7.92 7.92 0 0 0 7.94 7.94H85V85H18.49a6 6 0 0 1-6-6V28a4.64 4.64 0 0 0 4.67 4.66H85v17.65H69.71a7.93 7.93 0 0 0-7.94 7.93"></path><path d="M86 50.31H69.71a7.94 7.94 0 1 0 0 15.87H86a1.53 1.53 0 0 0 1.53-1.52V51.84A1.54 1.54 0 0 0 86 50.31M12.5 28a4.66 4.66 0 0 1 4.67-4.66H47m21.65-.02h10.82v9.33"></path><path d="M72.99 32.65H27l20.01-9.33 17.78-8.28 3.86 8.28z"></path></svg>
