<svg xmlns="http://www.w3.org/2000/svg"  aria-hidden="true" focusable="false" role="presentation" class="icon icon-tcwi-recycle" viewbox="0 0 100 100"><path d="M24 63.72h17.6v17.64h-6a12.87 12.87 0 0 1-11.57-7.24"></path><path d="M24 63.72v.07a9.82 9.82 0 0 0-1.2 4.71 12.73 12.73 0 0 0 1.27 5.58l-10.21-20-.62-1.22a9.59 9.59 0 0 1-.58-2 9.27 9.27 0 0 1 1-6.12l2.51-4.58-3.36-1.81 8.07-1.55 8.07-1.54 3.12 7.59 3.13 7.6-3-1.62Zm25-44.44-8 15.66-15.72-8 2.7-5.3a12.87 12.87 0 0 1 11.7-7h.05"></path><path d="M49 19.28v-.07A9.78 9.78 0 0 0 45.32 16a12.78 12.78 0 0 0-5.55-1.4h23.82a9.77 9.77 0 0 1 2 .38 9.24 9.24 0 0 1 5 3.66l2.94 4.31 3.14-2.17-2.27 7.87-2.29 7.9-8.18-.67-8.19-.66 2.8-1.94ZM76 63.5 67.6 48l15.53-8.38L86 44.89a12.86 12.86 0 0 1-.87 13.62"></path><path d="M76 63.5a9.82 9.82 0 0 0 4.71-1.18 12.78 12.78 0 0 0 4.3-3.77L72.31 77l-.78 1.12a9 9 0 0 1-1.45 1.44 9.27 9.27 0 0 1-5.85 2L59 81.6v3.82l-5.2-6.36-5.2-6.37 5.21-6.35L59 60v3.41Z"></path></svg>
