<svg width="100" height="100" viewBox="0 0 100 100" fill="none" xmlns="http://www.w3.org/2000/svg">
<path d="M50.2131 8.28857L43.2002 14.5508L34.0144 12.5122L31.0725 21.4417L22.1003 24.2676L24.0168 33.4778L17.6631 40.4114L23.9253 47.4243L21.8867 56.6101L25.8052 57.9041L13.5371 75.293L30.0898 79.2358L39.355 93.5059L50.2253 78.1067L61.0896 93.512L70.3547 79.2358L86.9136 75.293L74.7065 57.9895L77.8987 56.9824L75.9822 47.7722L82.3359 40.8386L76.0737 33.8257L78.1123 24.6399L69.1829 21.698L66.3569 12.7258L57.1467 14.6423L50.2131 8.28857ZM50.1582 16.7114L55.2852 21.4111L56.8538 21.0815L62.0906 19.9951L64.178 26.6296L70.7881 28.8086L69.2805 35.5957L73.9131 40.7837L69.2134 45.9106L70.6294 52.7161L63.9949 54.8035L61.8159 61.4136L55.0288 59.906L49.8408 64.5386L44.7139 59.8389L37.9084 61.2549L35.821 54.6204L29.2109 52.4414L30.7185 45.6543L26.0859 40.4663L30.7856 35.3394L29.3696 28.5339L36.0042 26.4465L38.1831 19.8364L44.9702 21.344L50.1582 16.7114ZM68.7373 60.376L76.4827 71.3501L66.4729 73.7366L60.876 82.3669L52.5508 70.5688L52.1418 70.8618L56.7988 66.6992L65.9846 68.7378L68.7373 60.376ZM31.2678 60.9924L33.6421 68.5242L42.8523 66.6077L47.613 70.9656L39.5747 82.3608L33.9717 73.7366L23.9619 71.3501L31.2678 60.9924Z" fill="black"/>
</svg>
