<svg width="100" height="100" viewBox="0 0 100 100" fill="none" xmlns="http://www.w3.org/2000/svg">
<path d="M13.7173 10C5.88731 35.49 10.5542 54.358 26.4842 59.2513C27.9176 59.6913 29.2439 59.9817 30.5272 60.2083C30.0139 58.2117 29.7264 56.1592 29.7264 54.0625C29.7264 50.7558 30.1885 47.6025 31.0285 44.6159C27.5285 37.3925 23.9598 31.9424 23.8931 31.8424C22.8731 30.3091 23.2907 28.2432 24.8241 27.2266C26.3641 26.2066 28.4266 26.6209 29.44 28.1576C29.66 28.4876 31.8298 31.7908 34.4465 36.6341C37.3698 31.7108 41.5424 27.5231 46.6991 24.3164C40.7724 18.2364 30.184 13.2933 13.7173 10ZM73.2486 23.9062C53.8352 23.9062 36.3931 35.1658 36.3931 54.0625C36.3931 59.8187 39.2987 65.2533 43.3983 69.4531C38.9408 78.7572 36.8098 85.6966 36.8098 85.6966C36.6823 86.1156 36.6385 86.5555 36.6811 86.9914C36.7237 87.4272 36.8517 87.8504 37.0578 88.2368C37.264 88.6232 37.5442 88.9652 37.8825 89.2433C38.2208 89.5213 38.6106 89.73 39.0296 89.8574C39.4486 89.9848 39.8886 90.0284 40.3244 89.9858C40.7603 89.9431 41.1834 89.815 41.5698 89.6088C41.9561 89.4026 42.298 89.1223 42.576 88.7839C42.854 88.4456 43.0626 88.0557 43.19 87.6367C43.19 87.6367 47.7706 72.7353 57.6366 57.6693C61.8747 51.2858 67.0989 44.6979 73.5415 38.6393C74.8815 37.3793 76.9951 37.4425 78.2551 38.7825C79.5151 40.1225 79.4518 42.2328 78.1118 43.4961C66.7152 54.2128 59.2056 66.9346 54.6223 76.6146C56.4056 77.1846 58.1735 77.5195 59.8501 77.5195C78.2368 77.5195 90.0064 66.3442 90.0064 40.6575V23.9062H73.2486Z" fill="black"/>
</svg>
