<svg width="100" height="100" viewBox="0 0 100 100" fill="none" xmlns="http://www.w3.org/2000/svg">
<path d="M64.0654 3.125L63.6962 5.70984C63.4524 7.41765 62.1081 8.76199 60.4003 9.00574L57.8154 9.375V10.9375L60.4003 11.3068C62.1081 11.5505 63.4494 12.8918 63.6931 14.5996L64.0654 17.1875H65.6279L65.9941 14.6027C66.2379 12.8948 67.5822 11.5505 69.29 11.3068L71.8779 10.9375V9.375L69.29 9.00574C67.5822 8.76199 66.2409 7.4207 65.9972 5.71289L65.6279 3.125H64.0654ZM44.5647 6.2561C43.7865 6.20213 42.7395 6.52652 41.5705 7.1838C40.4015 7.84109 39.1691 8.79831 38.0461 9.92126C37.3386 10.6292 36.6928 11.3847 36.1458 12.1446C35.5987 12.9044 35.1611 13.6537 34.858 14.3494C34.555 15.0451 34.3924 15.6735 34.3797 16.1988C34.367 16.724 34.5043 17.1357 34.7838 17.4103L34.7808 17.4133L36.1205 18.75H15.8324L15.0573 20.7428C14.826 21.3397 9.37793 35.4881 9.37793 47.6318C9.37793 58.821 17.2496 68.1924 27.7373 70.5231C28.403 70.9901 29.6904 72.4258 29.6904 76.5625V80.4688C29.6904 87.6297 15.6279 83.5938 15.6279 92.1875H50.0029C50.0029 83.5938 35.9404 87.6297 35.9404 80.4688V76.5625C35.9404 72.4225 37.2314 70.9889 37.8966 70.5231C48.3814 68.1906 56.2529 58.8203 56.2529 47.6318C56.2529 44.4412 55.863 41.1213 55.3038 37.9364L83.1237 65.7593C85.0283 67.664 88.1159 67.6655 90.0206 65.7593L93.8872 61.8927C95.7903 59.9896 95.7903 56.9019 93.8872 54.9988L45.5413 6.65283L45.5321 6.66199C45.303 6.42433 44.9761 6.28717 44.5647 6.2561ZM44.052 12.0575L60.9374 28.9062L57.0311 32.8125L40.1793 15.9271C40.891 15.4046 41.5967 14.7973 42.2606 14.1357C42.9218 13.473 43.5291 12.7684 44.052 12.0575ZM82.8154 17.1875L82.4462 19.7723C82.2024 21.4802 80.8581 22.8245 79.1503 23.0682L76.5654 23.4375V25L79.1503 25.3693C80.8581 25.613 82.1994 26.9543 82.4431 28.6621L82.8154 31.25H84.3779L84.7441 28.6652C84.9879 26.9573 86.3322 25.613 88.04 25.3693L90.6279 25V23.4375L88.04 23.0682C86.3322 22.8245 84.9909 21.4832 84.7472 19.7754L84.3779 17.1875H82.8154ZM20.1659 25H42.3705L46.8993 29.5288C47.5797 31.8438 48.2857 34.5771 48.8646 37.5H21.8779C21.0967 39.8438 20.3154 43.6719 20.3154 46.875C20.3154 56.2592 24.8301 62.626 31.8419 64.7949C22.819 64.285 15.6279 56.7934 15.6279 47.6318C15.6279 39.1756 18.7284 29.1797 20.1659 25ZM62.8478 57.8125L62.274 61.8347C61.8944 64.491 59.8064 66.5789 57.1501 66.9586L53.1279 67.5354V69.9646L57.1501 70.5414C59.8064 70.9211 61.8944 73.009 62.274 75.6653L62.8478 79.6875H65.28L65.8538 75.6653C66.2334 73.009 68.3214 70.9211 70.9777 70.5414L75.0029 69.9646V67.5354L70.9777 66.9586C68.3214 66.5789 66.2334 64.491 65.8538 61.8347L65.28 57.8125H62.8478Z" fill="black"/>
</svg>
