<svg width="100" height="100" viewBox="0 0 100 100" fill="none" xmlns="http://www.w3.org/2000/svg">
<path d="M48.9501 8.33337C44.3173 8.33337 40.3996 11.4469 37.6016 15.8895L37.5935 15.8977C37.5918 15.9003 37.5911 15.9032 37.5894 15.9058L31.9009 24.8454C31.3074 25.7778 31.1085 26.9078 31.3482 27.9868C31.5878 29.0658 32.2462 30.0055 33.1786 30.599C33.6403 30.8929 34.1553 31.093 34.6943 31.1878C35.2333 31.2827 35.7857 31.2704 36.32 31.1518C37.399 30.9122 38.3386 30.2537 38.9322 29.3213L44.6329 20.3614C44.6369 20.3546 44.641 20.3478 44.6451 20.341C46.5608 17.2934 48.1205 16.6667 48.9501 16.6667C49.7772 16.6667 51.3081 17.2908 53.19 20.3085L61.035 33.9763L57.7798 35.8317C57.3002 36.1047 56.9014 36.4998 56.6239 36.9768C56.3465 37.4539 56.2003 37.9959 56.2003 38.5478C56.2003 39.0997 56.3465 39.6417 56.6239 40.1188C56.9014 40.5958 57.3002 40.9909 57.7798 41.2639L72.412 49.5972C72.8869 49.8676 73.4244 50.0087 73.9709 50.0065C74.5173 50.0043 75.0537 49.8588 75.5264 49.5846C75.9991 49.3104 76.3916 48.917 76.6648 48.4437C76.9379 47.9704 77.0822 47.4337 77.0832 46.8872V30.2084C77.0847 29.66 76.9418 29.1209 76.669 28.6452C76.3961 28.1695 76.0029 27.774 75.5289 27.4984C75.0549 27.2223 74.5165 27.0758 73.968 27.0736C73.4194 27.0715 72.88 27.2138 72.4038 27.4862L68.2738 29.8422L60.3555 16.0523C60.3318 16.0098 60.3074 15.9678 60.2823 15.9261C57.5114 11.4669 53.5892 8.33337 48.9501 8.33337ZM30.0577 35.4045C29.6215 35.4256 29.1945 35.5379 28.8044 35.7341L14.2577 43.0461C13.7662 43.2938 13.3488 43.6669 13.0478 44.1277C12.7468 44.5885 12.5728 45.1207 12.5435 45.6703C12.5142 46.2199 12.6305 46.7675 12.8808 47.2577C13.1311 47.748 13.5064 48.1634 13.9688 48.462L17.6716 50.8423L8.65467 66.0238C5.9932 70.4978 5.3572 75.588 7.71065 79.5655C10.0641 83.5429 14.7684 85.4737 20.0153 85.4737C20.0221 85.4737 20.0289 85.4737 20.0357 85.4737L33.3495 85.4167C33.9015 85.4221 34.449 85.3177 34.9603 85.1097C35.4716 84.9016 35.9364 84.5941 36.3279 84.2049C36.7193 83.8157 37.0296 83.3526 37.2405 82.8425C37.4515 82.3324 37.5591 81.7855 37.5569 81.2335C37.5547 80.6815 37.4429 80.1355 37.228 79.6271C37.013 79.1186 36.6992 78.658 36.3047 78.2719C35.9102 77.8858 35.443 77.5819 34.9301 77.3778C34.4172 77.1738 33.8688 77.0737 33.3169 77.0834L20.0153 77.1403C16.6852 77.1403 15.3522 76.1123 14.8843 75.3215C14.4164 74.5307 14.1775 73.0455 15.8202 70.2841C15.8202 70.2827 15.8202 70.2813 15.8202 70.28L24.6866 55.3508L28.5196 57.8166C29.0233 58.14 29.6097 58.311 30.2082 58.309C31.037 58.309 31.8319 57.9797 32.4179 57.3937C33.004 56.8076 33.3332 56.0128 33.3332 55.184V38.5173C33.3313 37.9859 33.1939 37.4638 32.934 37.0003C32.6742 36.5368 32.3004 36.1472 31.848 35.8684C31.3117 35.5366 30.6876 35.3749 30.0577 35.4045ZM81.2214 54.1179C80.4632 54.1172 79.7192 54.3235 79.0695 54.7144C78.4198 55.1053 77.8891 55.6661 77.5346 56.3363C77.18 57.0065 77.015 57.7607 77.0574 58.5177C77.0997 59.2748 77.3478 60.0059 77.7749 60.6324L84.1348 70.2474C85.7556 72.9898 85.5245 74.4766 85.0585 75.2645C84.5907 76.0554 83.2588 77.0834 79.9275 77.0834H64.5832V71.9198C64.5825 71.3735 64.4387 70.8369 64.1659 70.3636C63.8932 69.8902 63.5011 69.4966 63.0288 69.222C62.5552 68.9453 62.0171 68.7981 61.4685 68.7952C60.92 68.7924 60.3803 68.934 59.9038 69.2058L45.3205 77.5188C44.8409 77.7917 44.442 78.1868 44.1646 78.6638C43.8872 79.1409 43.741 79.6829 43.741 80.2348C43.741 80.7867 43.8872 81.3287 44.1646 81.8058C44.442 82.2829 44.8409 82.6779 45.3205 82.9509L59.9038 91.2639C60.3799 91.5368 60.9193 91.6796 61.468 91.6779C62.0167 91.6761 62.5553 91.53 63.0296 91.2541C63.5039 90.9781 63.8972 90.5822 64.1699 90.1061C64.4426 89.6299 64.5852 89.0904 64.5832 88.5417V85.4167H79.9275C85.1752 85.4167 89.8796 83.4859 92.2321 79.5085C94.5847 75.5311 93.9496 70.4404 91.2922 65.9668C91.257 65.909 91.2203 65.852 91.1823 65.7959L84.7248 56.0344C84.348 55.4472 83.8297 54.964 83.2176 54.6291C82.6055 54.2943 81.9191 54.1185 81.2214 54.1179Z" fill="black"/>
</svg>
