<svg width="100" height="100" viewBox="0 0 100 100" fill="none" xmlns="http://www.w3.org/2000/svg">
<path d="M77.6367 12.6953L74.6094 13.5742L50.5859 20.4102L47.6562 21.2891L48.2422 23.4375L25.6836 16.8945L22.6562 16.0156L21.7773 19.043L12.9883 48.9258C11.9263 52.6245 11.2793 57.0435 12.5 61.3281C13.4888 64.7949 15.9668 68.1274 19.8242 70.1172L16.9922 80.3711L8.00781 77.7344L6.25 83.7891L30.2734 90.7227L32.0312 84.668L23.0469 82.0312L25.8789 71.875C30.2002 72.229 34.0332 70.6665 36.7188 68.2617C40.0391 65.2832 41.9067 61.3159 42.9688 57.6172L50.6836 31.8359L57.0312 54.3945V54.4922C58.0933 58.1909 59.9609 62.1582 63.2812 65.1367C65.9912 67.5659 69.7754 69.0308 74.1211 68.6523L76.9531 78.9062L67.9688 81.543L69.7266 87.5977L93.75 80.6641L91.9922 74.6094L83.0078 77.2461L80.0781 66.9922C83.9355 65.0024 86.4136 61.6699 87.4023 58.2031C88.623 53.9185 88.0737 49.4995 87.0117 45.8008L78.5156 15.7227L77.6367 12.6953ZM73.4375 20.4102L77.3438 34.375H57.8125L55.3711 25.5859L73.4375 20.4102ZM26.9531 23.8281L44.9219 28.9062L42.3828 37.5H22.8516L26.9531 23.8281ZM59.5703 40.625H79.1016L81.0547 47.5586C81.897 50.4639 82.1899 53.9185 81.4453 56.543C80.7007 59.1675 79.2847 61.0107 75.4883 62.1094C71.6919 63.208 69.5068 62.3657 67.4805 60.5469C65.4541 58.728 63.8306 55.6396 62.9883 52.7344L59.5703 40.625ZM20.9961 43.75H40.5273L37.0117 55.8594H36.9141C36.0718 58.7646 34.5459 61.853 32.5195 63.6719C30.4932 65.4907 28.3081 66.333 24.5117 65.2344C20.7153 64.1357 19.2993 62.2925 18.5547 59.668C17.8101 57.0435 18.103 53.5889 18.9453 50.6836L20.9961 43.75Z" fill="black"/>
</svg>
