<svg width="100" height="100" viewBox="0 0 100 100" fill="none" xmlns="http://www.w3.org/2000/svg">
<path d="M49.9997 12.5C48.2747 12.5 46.8747 13.9 46.8747 15.625V21.6217L44.1372 19.4336C42.7919 18.3555 40.8239 18.5734 39.7457 19.9219C38.6676 21.2703 38.8886 23.2352 40.2371 24.3134L46.8747 29.6265V34.9182C46.4744 35.0742 46.0804 35.2525 45.7028 35.4706L39.5657 39.0167C39.1879 39.2348 38.8358 39.4836 38.5006 39.7522L33.9199 37.1094L32.6382 28.7018C32.3773 26.9955 30.7893 25.8224 29.0768 26.0834C27.3706 26.3427 26.199 27.9385 26.4584 29.6448L26.9863 33.1055L21.7923 30.1056C20.2938 29.2384 18.3869 29.7547 17.5228 31.25C16.6603 32.7453 17.1704 34.6569 18.6673 35.5194L23.8644 38.5193L20.599 39.7949C18.9896 40.423 18.1994 42.2337 18.8259 43.8416C19.3072 45.0759 20.4873 45.8282 21.7373 45.8282C22.1154 45.8282 22.4991 45.7599 22.8726 45.6146L30.7949 42.5201L35.3756 45.166C35.3105 45.5909 35.2688 46.0203 35.2688 46.4569V53.5461C35.2688 53.9817 35.3108 54.4101 35.3756 54.834L30.7919 57.4799L22.8726 54.3884C21.2601 53.7572 19.4495 54.5552 18.8229 56.1615C18.1963 57.7677 18.9912 59.58 20.599 60.2081L23.8613 61.4838L18.6673 64.4806C17.1719 65.3431 16.6603 67.2547 17.5228 68.75C18.1025 69.7516 19.1531 70.3125 20.2328 70.3125C20.7625 70.3125 21.3001 70.1788 21.7923 69.8944L26.9863 66.8945L26.4584 70.3583C26.199 72.063 27.3706 73.6557 29.0768 73.9166C29.2377 73.9401 29.3951 73.9532 29.5529 73.9532C31.0701 73.9532 32.4023 72.8451 32.6382 71.2982L33.9199 62.8906L38.4976 60.2478C38.8337 60.5174 39.1867 60.7675 39.5657 60.9863L45.6997 64.5294C46.0788 64.7482 46.4732 64.9286 46.8747 65.0848V70.3735L40.2371 75.6866C38.8871 76.7648 38.6676 78.7297 39.7457 80.0781C40.8239 81.4266 42.7919 81.6461 44.1372 80.5664L46.8747 78.3783V84.375C46.8747 86.1 48.2747 87.5 49.9997 87.5C51.7247 87.5 53.1247 86.1 53.1247 84.375V78.3783L55.8621 80.5664C56.4371 81.0273 57.1247 81.25 57.8091 81.25C58.7247 81.25 59.6364 80.8484 60.2536 80.0781C61.3317 78.7297 61.1107 76.7648 59.7622 75.6866L53.1247 70.3735V65.0818C53.5247 64.9258 53.9189 64.7476 54.2965 64.5294L60.4336 60.9863C60.8114 60.7683 61.1635 60.5164 61.4987 60.2478L66.0763 62.8906L67.3581 71.2982C67.5956 72.8451 68.9292 73.9502 70.4464 73.9502C70.6042 73.9502 70.7616 73.9416 70.9225 73.9166C72.6288 73.6573 73.8003 72.0615 73.5409 70.3552L73.013 66.8945L78.2071 69.8914C78.6992 70.1773 79.2368 70.3125 79.7665 70.3125C80.8462 70.3125 81.8953 69.7531 82.4734 68.75C83.3359 67.2547 82.8274 65.3431 81.3321 64.4806L76.1349 61.4807L79.4003 60.2051C81.0097 59.577 81.7999 57.7663 81.1734 56.1584C80.5452 54.5522 78.7408 53.7557 77.1267 54.3854L69.2044 57.4799L64.6237 54.834C64.6888 54.4093 64.7305 53.9796 64.7305 53.5431V46.4569C64.7305 46.0204 64.6888 45.5907 64.6237 45.166L69.2074 42.5201L77.1267 45.6116C77.5017 45.7584 77.8854 45.8282 78.262 45.8282C79.512 45.8282 80.6905 45.0729 81.1734 43.8385C81.7999 42.2323 81.0081 40.42 79.4003 39.7919L76.138 38.5162L81.3321 35.5194C82.8274 34.6569 83.3359 32.7453 82.4734 31.25C81.6093 29.7547 79.7055 29.2384 78.2071 30.1056L73.013 33.1055L73.5409 29.6417C73.8003 27.937 72.6288 26.3443 70.9225 26.0834C69.2209 25.8224 67.6236 26.9955 67.3611 28.7018L66.0794 37.1094L61.4987 39.7522C61.1635 39.4836 60.8114 39.2317 60.4336 39.0137L54.2996 35.4706C53.9207 35.2518 53.526 35.0744 53.1247 34.9182V29.6265L59.7622 24.3134C61.1122 23.2352 61.3317 21.2703 60.2536 19.9219C59.177 18.575 57.2074 18.3539 55.8621 19.4336L53.1247 21.6217V15.625C53.1247 13.9 51.7247 12.5 49.9997 12.5ZM49.9997 42.1326C50.134 42.1326 50.27 42.1645 50.3903 42.2333L56.5274 45.7794C56.768 45.9185 56.918 46.1757 56.918 46.4539V53.5431C56.918 53.8212 56.768 54.0785 56.5274 54.2175L50.3872 57.7637C50.1497 57.9027 49.8497 57.9043 49.609 57.7637L43.4719 54.2175C43.2313 54.0785 43.0813 53.8212 43.0813 53.5431V46.4539C43.0813 46.1757 43.2313 45.9185 43.4719 45.7794L49.6121 42.2333C49.7308 42.1645 49.8653 42.1326 49.9997 42.1326Z" fill="black"/>
</svg>
