<svg width="20" height="20" viewBox="0 0 20 20" fill="none" xmlns="http://www.w3.org/2000/svg">
<path d="M11.0949 5.51373C11.1941 5.34695 11.253 5.21325 11.3436 5.10542C12.4492 3.77122 13.5577 2.43703 14.6704 1.10858C15.1003 0.595319 15.546 0.494679 16.0205 0.782222C16.5495 1.10139 16.6286 1.71386 16.1858 2.26738C15.7085 2.86547 15.2081 3.44486 14.7193 4.03289C13.9473 4.96021 13.181 5.89472 12.3974 6.81342C12.2134 7.02908 12.1875 7.17141 12.3586 7.42157C14.5166 10.5788 16.6631 13.7446 18.8067 16.9119C18.9865 17.1779 19.1518 17.4611 19.2697 17.7573C19.7053 18.8499 19.1317 19.8276 17.9513 19.9138C16.3411 20.0317 14.7251 20.0562 13.122 19.8031C12.1717 19.6536 11.5147 19.0455 10.9913 18.2907C9.84117 16.6301 8.71113 14.9566 7.57246 13.2889C7.50058 13.1839 7.41719 13.0862 7.28348 12.9122C7.19722 13.0358 7.14259 13.1264 7.07645 13.2069C5.59705 14.9782 4.11764 16.748 2.6368 18.5178C2.5146 18.6645 2.39095 18.8126 2.24862 18.9376C1.89782 19.2453 1.39893 19.241 1.03231 18.9448C0.678638 18.6587 0.566496 18.134 0.838224 17.7515C1.19046 17.2555 1.58727 16.7911 1.97689 16.321C3.30534 14.7208 4.63666 13.1207 5.9766 11.5306C6.16063 11.312 6.13763 11.1596 5.98811 10.9411C4.20678 8.32302 2.43265 5.70063 0.664261 3.0725C0.458668 2.7677 0.264577 2.44278 0.13087 2.10204C-0.268814 1.09133 0.280392 0.0949956 1.35724 0.0446757C2.87115 -0.0257721 4.39368 -0.00133105 5.91047 0.053302C7.04051 0.0935579 7.8255 0.785097 8.44228 1.6736C9.23302 2.81227 10.0123 3.95956 10.7958 5.10254C10.8619 5.19887 10.9324 5.29232 11.0934 5.5166L11.0949 5.51373ZM2.20693 1.9137C2.30469 2.08191 2.36651 2.20699 2.44415 2.32057C5.82421 7.28786 9.2057 12.2537 12.5843 17.2239C12.915 17.7113 13.3406 18.0161 13.9415 18.0276C14.945 18.0448 15.9486 18.0563 16.9521 18.0649C17.0168 18.0649 17.0815 18.0261 17.1922 17.9888C17.0786 17.8047 16.9866 17.6437 16.8831 17.4899C14.6115 14.1371 12.3428 10.7829 10.0669 7.43451C8.96561 5.81421 7.84275 4.20829 6.7429 2.58799C6.40648 2.09341 5.9421 1.89501 5.37277 1.88638C4.47563 1.87488 3.57994 1.86626 2.68281 1.86194C2.54479 1.86194 2.40677 1.8907 2.2098 1.91226L2.20693 1.9137Z" fill="black"/>
</svg>
