<svg width="100" height="100" viewBox="0 0 100 100" fill="none" xmlns="http://www.w3.org/2000/svg">
<path d="M39.5833 6.25C32.1418 6.25 26.0417 12.3501 26.0417 19.7917C26.0417 22.5313 27.071 24.9448 28.4871 27.0833H17.7083C14.8675 27.0833 12.5 29.4508 12.5 32.2917V46.875C12.5 49.3128 14.3768 51.1043 16.6667 51.6479V78.125C16.6667 85.5665 22.7668 91.6667 30.2083 91.6667H69.7917C77.2332 91.6667 83.3333 85.5665 83.3333 78.125V51.6479C85.6232 51.1043 87.5 49.3128 87.5 46.875V32.2917C87.5 29.4508 85.1325 27.0833 82.2917 27.0833H71.5129C72.929 24.9448 73.9583 22.5313 73.9583 19.7917C73.9583 12.3501 67.8582 6.25 60.4167 6.25C56.1492 6.25 52.4877 8.38017 50 11.495C47.5123 8.38017 43.8508 6.25 39.5833 6.25ZM39.5833 12.5C43.646 12.5 46.875 15.729 46.875 19.7917V27.0833H39.5833C35.5207 27.0833 32.2917 23.8543 32.2917 19.7917C32.2917 15.729 35.5207 12.5 39.5833 12.5ZM60.4167 12.5C64.4793 12.5 67.7083 15.729 67.7083 19.7917C67.7083 23.8543 64.4793 27.0833 60.4167 27.0833H53.125V19.7917C53.125 15.729 56.354 12.5 60.4167 12.5ZM18.75 33.3333H39.5833H46.875V45.8333H18.75V33.3333ZM53.125 33.3333H60.4167H81.25V45.8333H53.125V33.3333ZM22.9167 52.0833H46.875V85.4167H30.2083C26.1457 85.4167 22.9167 82.1876 22.9167 78.125V52.0833ZM53.125 52.0833H77.0833V78.125C77.0833 82.1876 73.8543 85.4167 69.7917 85.4167H53.125V52.0833Z" fill="black"/>
</svg>
