<svg width="100" height="100" viewBox="0 0 100 100" fill="none" xmlns="http://www.w3.org/2000/svg">
<path d="M97.6562 22.4219L71.25 13.0469C70.625 12.8125 70 12.8906 69.4531 13.125C68.5938 13.5156 22.6562 29.7656 22.6562 29.7656C21.4844 30.1562 20.7031 31.25 20.7031 32.5V43.4375C20.7031 44.4531 21.3281 45.3125 22.2656 45.625L28.3594 47.8125C29.9219 48.3594 31.4844 47.2656 31.4844 45.625V36.4844C31.4844 35.2344 32.2656 34.1406 33.4375 33.75L74.9219 19.375L89.9219 24.6875L49.2188 38.9844C48.3594 39.2969 47.6562 40.1562 47.6562 41.1719V88.6719L5.46875 73.75V26.25L50.7812 10.2344C52.0313 9.76562 52.6563 8.43749 52.1875 7.26562C51.7188 6.01562 50.3906 5.39062 49.2188 5.85937L2.34375 22.4219C1.40625 22.7344 0.78125 23.6719 0.78125 24.6094V75.3906C0.78125 76.4062 1.40625 77.2656 2.34375 77.5781L49.2188 94.1406C49.4531 94.2187 49.7656 94.2969 50 94.2969C50.1563 94.2969 50.2344 94.2969 50.3906 94.2969H50.4687C50.5469 94.2969 50.625 94.2187 50.7812 94.2187L97.6562 77.6562C98.5938 77.3437 99.2188 76.4062 99.2188 75.4687V24.6875C99.2188 23.5937 98.5938 22.7344 97.6562 22.4219Z" fill="black"/>
</svg>
