<svg width="1038" height="1026" viewBox="0 0 1038 1026" fill="none" xmlns="http://www.w3.org/2000/svg">
<g clip-path="url(#clip0_742_1469)">
<path d="M22.6654 345.258C24.912 354.071 32.9818 359.62 36.7358 361.293C37.44 366.588 38.0141 376.065 34.6765 371.614C31.3389 367.164 18.9788 359.924 13.2159 356.861C-7.03137 348.611 -9.81379 368.081 -3.66478 376.167C1.25442 382.635 22.7546 385.072 32.8898 385.481L24.2986 412.887C25.6893 414.741 27.1945 417.157 22.0899 411.987C15.7091 405.523 -10.7417 386.161 -18.596 402.277C-24.8795 415.17 -17.3971 423.565 -11.5069 425.965C1.87429 431.417 12.0492 431.361 17.5487 429.453C15.0577 438.024 9.80032 454.369 8.69876 451.173C7.32181 447.177 -2.44031 438.478 -17.5338 432.328C-29.6086 427.408 -41.0674 431.09 -41.2586 436.827C-35.9831 466.019 -2.97315 464.016 0.340052 465.366C2.99062 466.446 -7.76429 482.096 -13.4731 489.785C-13.9275 487.74 -17.5114 481.787 -28.2117 474.337C-41.587 465.023 -54.4925 469.575 -56.7634 483.307C-58.5227 493.946 -36.4392 502.606 -23.8362 505.738L-62.5614 558.639L-48.763 559.54L-15.001 509.338C-6.03004 526.3 7.83649 528.087 10.5634 528.768C13.2904 529.45 27.9069 529.396 24.2535 512.025C20.6001 494.654 -12.1643 492.894 -7.9511 492.035C-4.58054 491.348 4.13458 476.07 8.07082 468.516C34.5759 490.905 50.2155 480.966 55.9287 476.426C61.6419 471.886 51.9753 459.792 42.8401 456.928C35.5319 454.637 20.7155 453.636 14.2208 453.423L23.0707 431.703C25.6658 433.762 34.4527 438.744 48.84 442.203C63.2274 445.661 68.2516 438.808 68.9654 434.95C70.2972 430.627 69.6013 420.958 56.163 416.856C42.7247 412.754 32.1021 416.209 28.4706 418.45L39.0255 384.118C59.1935 397.83 69.0717 391.495 71.4899 386.614C73.7715 383.824 76.6497 376.268 69.909 368.371C63.1683 360.473 48.6933 365.307 42.2985 368.711L41.9852 359.998C47.0801 359.784 58.1754 356.293 61.7973 344.032C66.3247 328.707 55.0356 316.381 43.0235 313.203C33.4137 310.661 27.0205 318.416 25.0251 322.61C20.2036 328.544 21.443 340.181 22.6654 345.258Z" fill="#212121" fill-opacity="0.08"/>
<path d="M662.61 457.591C663.789 451.55 660.462 445.818 658.651 443.707C659.754 440.265 662.149 434.303 662.901 437.991C663.652 441.68 669.114 449.689 671.75 453.233C681.743 464.145 689.086 453.043 687.668 446.317C686.534 440.935 674.091 433.216 668.011 430.029L681.206 415.757C680.893 414.22 680.672 412.307 682.296 416.948C684.326 422.749 694.892 442.255 704.365 434.675C711.943 428.61 709.8 421.308 706.893 418.134C700.289 410.922 694.05 408.008 690.134 407.582C694.141 403.061 702.092 394.589 701.84 396.863C701.524 399.705 704.974 407.854 712.423 415.988C718.382 422.496 726.456 423.564 728.235 420.111C733.468 400.729 712.699 392.39 711.064 390.604C709.756 389.176 720.868 382.721 726.587 379.672C726.273 381.055 726.739 385.734 731.125 393.391C736.606 402.962 745.818 403.918 751.185 396.178C755.344 390.181 744.347 378.486 737.547 372.919L776.559 351.786L768.381 347.238L733.187 368.157C732.615 355.184 724.652 350.074 723.182 348.867C721.712 347.66 712.757 343.458 709.959 355.14C707.16 366.822 726.688 377.392 723.862 376.696C721.602 376.14 711.845 382.959 707.249 386.438C697.526 365.065 685.082 366.612 680.272 367.734C675.463 368.855 677.87 379.052 682.627 383.451C686.433 386.969 695.204 391.874 699.114 393.887L687.409 404.606C686.418 402.595 682.488 397.002 674.691 390.718C666.894 384.434 661.836 387.169 660.282 389.322C658.215 391.58 655.838 397.695 662.868 404.097C669.898 410.5 677.396 411.464 680.266 411.146L663.864 429.085C655.502 414.855 647.626 415.867 644.733 418.151C642.529 419.197 638.579 422.984 640.413 429.767C642.248 436.55 652.501 437.788 657.398 437.559L655.065 442.978C651.887 441.632 644.09 440.553 638.322 447.002C631.113 455.063 634.446 465.872 640.871 471.296C646.012 475.635 652.169 472.745 654.604 470.757C659.272 468.526 661.886 461.05 662.61 457.591Z" fill="#212121" fill-opacity="0.08"/>
<path d="M720.638 804.315C727.175 804.193 732.385 799.459 734.173 797.107C737.995 797.486 744.721 798.643 741.057 800.246C737.394 801.85 730.294 809.308 727.203 812.837C718.099 825.648 731.266 830.798 737.935 827.826C743.271 825.447 748.513 810.803 750.467 803.778L768.231 814.298C769.758 813.63 771.696 812.974 767.238 815.696C761.666 819.098 743.765 834.422 753.75 842.569C761.739 849.087 768.844 845.232 771.493 841.506C777.509 833.039 779.144 825.909 778.713 821.747C784.302 824.9 794.874 831.268 792.457 831.513C789.434 831.819 781.741 837.22 774.954 846.77C769.525 854.41 770.216 863.034 774.199 864.112C795.495 865.223 799.524 841.794 801.014 839.697C802.206 838.02 811.388 848.121 815.829 853.381C814.324 853.362 809.568 854.891 802.594 861.153C793.877 868.98 794.938 878.76 804.174 882.608C811.33 885.59 821.023 871.561 825.288 863.257L855.936 899.059L858.836 889.551L829.26 857.666C842.606 854.179 846.137 844.77 847.063 842.974C847.989 841.177 850.356 830.94 837.599 830.639C824.842 830.338 818.22 852.976 818.312 849.887C818.386 847.415 809.128 838.803 804.49 834.806C824.518 819.941 820.136 807.362 817.898 802.617C815.661 797.872 805.607 802.647 802.101 808.569C799.295 813.306 796.158 823.509 794.94 828.019L781.196 818.253C783.064 816.776 787.996 811.446 792.783 801.947C797.57 792.449 793.601 787.805 791.019 786.671C788.213 785.028 781.332 783.924 776.251 792.653C771.17 801.382 771.84 809.384 772.811 812.294L750.522 799.26C763.436 787.403 760.628 779.448 757.61 776.953C756.033 774.897 751.219 771.64 744.584 775.058C737.948 778.476 738.949 789.4 740.279 794.435L734.131 793.221C734.82 789.62 734.201 781.282 726.218 776.73C716.238 771.041 705.755 776.913 701.556 784.796C698.196 791.103 702.571 796.852 705.178 798.938C708.537 803.289 716.884 804.336 720.638 804.315Z" fill="#212121" fill-opacity="0.08"/>
<path d="M118.546 680.568C122.829 677.749 124.3 672.428 124.501 670.12C127.192 668.771 132.136 666.721 130.379 669.318C128.622 671.915 127.039 679.833 126.467 683.467C125.798 695.773 136.684 693.673 139.86 688.908C142.401 685.097 139.743 673.193 138.096 667.718L154.278 667.252C155.01 666.17 156.021 664.923 154.205 668.594C151.936 673.183 146.487 690.84 156.519 692.059C164.545 693.034 167.641 687.502 167.836 683.922C168.278 675.789 166.376 670.378 164.347 667.8C169.372 667.549 179.048 667.343 177.548 668.518C175.673 669.986 172.834 676.789 172.335 685.962C171.936 693.301 176.006 698.729 179.098 697.775C193.681 689.592 186.539 672.373 186.648 670.359C186.736 668.748 197.053 671.598 202.201 673.225C201.195 673.843 198.683 676.848 196.682 683.92C194.182 692.761 198.982 698.799 206.716 697.482C212.708 696.461 213.258 683.102 212.607 675.81L247.92 686.707L245.86 679.19L212.899 670.44C220.286 662.539 218.686 654.822 218.547 653.244C218.409 651.666 215.69 643.888 207.107 649.031C198.525 654.175 203.616 671.955 202.383 669.868C201.397 668.199 191.653 666.368 186.904 665.66C193.955 647.418 185.781 640.915 182.311 638.706C178.841 636.498 174.176 643.874 174.331 649.268C174.455 653.583 176.649 661.662 177.73 665.161L164.529 664.443C165.149 662.682 166.186 657.083 165.381 648.781C164.576 640.479 160 639.064 157.813 639.393C155.265 639.479 150.241 641.63 150.529 649.544C150.816 657.459 154.612 662.483 156.475 664.005L136.24 664.7C139.834 651.431 134.641 647.334 131.596 646.944C129.689 646.241 125.134 646.098 122.167 651.143C119.199 656.188 124.438 663.011 127.429 665.792L122.844 667.562C121.793 664.887 117.891 659.618 110.692 659.944C101.694 660.352 97.2037 668.636 97.7214 675.62C98.1355 681.208 103.444 683.187 106.046 683.479C110.095 684.956 116.067 682.154 118.546 680.568Z" fill="#212121" fill-opacity="0.08"/>
<path fill-rule="evenodd" clip-rule="evenodd" d="M844.986 -150.631C836.583 -153.316 818.453 -159.04 778.565 -151.54C738.347 -143.978 708.743 -88.1767 698.968 -61.2211C723.056 -64.3717 778.565 -44.4175 778.565 -43.3673C778.565 -42.5271 763.902 -42.3171 756.571 -42.3171C721.381 -38.9564 690.24 -16.4117 679.069 -5.55941C659.798 12.9245 646.602 46.2514 642.412 60.6045C685.143 59.7643 710.488 74.2573 717.82 81.6089C712.583 83.7093 667.548 86.86 649.744 87.9102C635.5 88.7503 629.146 96.662 627.75 100.513C609.317 145.042 622.164 218.488 630.892 249.644C635.919 277.37 658.82 320.709 669.643 338.913C673.832 334.712 702.808 321.759 716.773 315.808C748.658 293.883 748.898 281.648 749.064 273.171C749.089 271.902 749.112 270.718 749.24 269.598C749.616 266.287 749.814 263.655 749.974 261.527C750.266 257.633 750.431 255.43 751.334 253.845C753.109 254.353 754.577 255.231 756.139 256.165C761.03 259.09 766.845 262.567 785.896 256.996C805.032 251.399 812.635 237.889 820.257 224.344C822.647 220.097 825.039 215.847 827.789 211.836C837.006 198.393 837.913 179.629 837.215 171.928C834.571 161.324 820.064 149.233 814.281 144.413C813.192 143.505 812.412 142.855 812.079 142.522C811.683 142.124 811.174 141.651 810.638 141.153C808.34 139.019 805.541 136.419 808.937 137.271C813.127 138.321 834.073 143.572 853.972 139.371C873.872 135.17 889.582 88.9604 890.629 60.6045C891.676 32.2485 865.493 3.89257 861.304 -0.308308C857.952 -3.66901 859.209 -5.90947 860.256 -6.60962C869.333 -4.15911 890.21 1.37205 901.102 3.89257C914.717 7.04324 922.049 1.79214 925.191 -6.60962C930.266 -20.1816 929.398 -53.7077 921.02 -75.8432C915.779 -101.366 878.922 -129.971 856.935 -144.765C825.884 -72.4181 734.486 135.016 684.305 248.594C678.44 255.315 679.069 243.693 680.116 237.041C681.049 224.887 810.642 -75.2669 844.986 -150.631ZM711.536 256.995C715.725 258.046 722.847 262.246 717.82 270.648C711.536 281.15 700.015 261.196 711.536 256.995ZM890.629 -46.5182C886.439 -66.6824 861.653 -68.2227 849.783 -66.4723C847.538 -61.9689 852.781 -59.6112 860.926 -55.9488C864.178 -54.4867 867.892 -52.8166 871.777 -50.7191C882.669 -44.8378 888.883 -45.4679 890.629 -46.5182ZM747.145 -89.5772C744.701 -91.3275 741.908 -95.2484 750.287 -96.9287C760.76 -99.0292 789.038 -100.079 790.085 -94.8283C791.133 -89.5772 790.085 -87.4767 784.849 -86.4265C779.612 -85.3763 754.476 -84.3261 747.145 -89.5772ZM818.363 51.1523C803.282 45.2711 809.286 55.7032 814.174 61.6545C819.061 66.2054 831.769 76.5676 843.499 81.6087C855.229 86.6497 853.274 79.5082 850.83 75.3073C846.292 69.7062 833.445 57.0335 818.363 51.1523ZM757.618 188.731C755.873 183.13 755.314 174.028 767.044 182.43C778.774 190.832 783.801 202.034 784.849 206.585C787.642 214.987 789.666 227.799 775.423 211.836C761.179 195.873 757.618 189.781 757.618 188.731ZM680.116 153.024C693.522 150.503 685.702 144.972 680.116 142.521C657.075 138.321 649.744 147.773 651.838 149.873C653.933 151.973 663.359 156.174 680.116 153.024ZM700.015 25.947C695.128 24.1966 688.285 20.0658 700.015 17.5452C714.678 14.3946 732.482 15.4448 734.577 20.6959C736.672 25.947 715.725 31.1981 700.015 25.947Z" fill="#212121" fill-opacity="0.08"/>
<path fill-rule="evenodd" clip-rule="evenodd" d="M259.171 796.96C254.49 779.848 248.307 749.231 256.808 733.999C262.237 719.113 276.453 701.735 284.959 697.072C290.225 694.186 296.238 694.729 301.764 702.278C306.185 708.318 314.352 720.249 317.883 725.459C318.72 725.562 320.336 724.976 320.106 721.806C319.819 717.845 318.939 692.022 331.866 678.102C344.794 664.183 372.96 647.621 384.886 654.191C396.811 660.76 405.136 672.579 406.801 674.943L406.801 674.943C408.151 676.86 407.869 674.318 407.637 672.231C407.582 671.744 407.531 671.282 407.504 670.907C407.481 670.593 407.37 669.923 407.214 668.986C406.389 664.014 404.319 651.542 407.615 645.009C410.628 640.799 419.291 631.682 429.84 628.895C432.988 628.064 436.059 626.955 439.127 625.846C448.913 622.311 458.674 618.785 470.823 624.313C482.918 629.816 484.346 634.121 485.548 637.742C485.931 638.899 486.292 639.985 486.969 641.019C488.12 640.61 489.167 639.565 491.018 637.719C492.029 636.71 493.28 635.462 494.918 633.948C495.472 633.435 496.002 632.845 496.569 632.213C500.359 627.988 505.83 621.889 531.581 624.712C541.263 627.799 561.617 633.899 565.577 633.6C563.106 647.561 555.772 679.547 546.2 695.802C537.005 715.414 511.411 758.269 482.599 772.789C480.207 774.131 473.527 775.364 465.938 769.564C456.452 762.313 432.24 744.222 428.667 742.998C429.17 749.931 435.685 768.359 457.718 786.613C449.319 792.059 428.059 803.188 410.208 804.135C399.8 804.754 374.155 802.571 354.844 788.891C351.126 785.686 343.6 779.383 343.233 779.809C342.774 780.341 362.195 814.725 375.786 823.658C359.045 833.052 319.641 848.402 295.944 834.655C272.443 821.021 265.752 810.194 262.665 805.158C313.025 781.96 509.947 686.429 515.733 680.674C519.172 677.76 524.571 672.142 518.659 672.986C443.565 708.635 306.542 773.854 259.171 796.96ZM455.318 671.288C453.755 674.891 450.059 679.75 447.784 670.362C445.51 660.974 447.858 653.097 449.317 650.331C451.574 644.851 456.148 637.469 456.391 651.79C456.635 666.11 455.777 670.755 455.318 671.288ZM508.526 656.822C506.861 654.458 505.086 649.214 511.308 647.152C519.085 644.574 516.203 659.728 508.526 656.822ZM285.037 732.418C278.346 744.473 290.24 756.09 297.023 760.391C300.131 759.089 298.503 755.602 295.974 750.184C294.964 748.021 293.811 745.551 292.759 742.789C289.807 735.045 286.381 732.648 285.037 732.418ZM338.963 816.975C339.436 818.931 339.138 822.14 334.156 819.329C327.927 815.816 313.131 803.986 314.895 800.866C316.66 797.745 318.109 797.138 321.223 798.895C324.337 800.652 337.541 811.108 338.963 816.975ZM364.375 714.488C369.45 724.063 370.966 716.149 371.09 710.995C370.601 706.551 368.688 695.741 364.945 688.058C361.201 680.374 359.07 684.849 358.473 688.048C358.325 692.872 359.299 704.913 364.375 714.488ZM479.004 723.273C471.105 718.691 472.652 724.914 474.412 728.598C484.258 740.801 492.108 739.213 491.964 737.233C491.82 735.252 488.877 729.001 479.004 723.273ZM413.361 779.005C415.074 782.029 416.738 787.115 409.688 783.265C400.877 778.453 392.309 770.137 393.542 766.558C394.776 762.98 407.692 769.475 413.361 779.005Z" fill="#212121" fill-opacity="0.08"/>
<path fill-rule="evenodd" clip-rule="evenodd" d="M511.529 932.271C531.218 946.331 554.363 962.858 559.086 976.795C565.965 992.499 578.588 1028.87 577.562 1061.62C578.635 1074.62 589.122 1102.83 611.062 1114.23C625.75 1121.85 647.418 1129.38 661.356 1110.06C666.656 1097.3 666.44 1096.85 654.992 1073.25C652.706 1068.53 649.972 1062.9 646.745 1056.05C638.353 1032.88 626.725 1003.65 617.986 988.736C616.855 987.291 615.594 985.636 614.204 983.812C599.88 965.012 571.9 928.288 532.053 919.369C528.811 919.532 525.822 919.023 526.462 917.297C527.567 914.313 549.243 918.737 559.64 921.189C578.054 923.611 619.239 930.429 636.662 938.323C658.441 948.191 716.735 964.387 737.459 940.867C744.835 932.4 749.679 911.316 710.046 894.714C660.505 873.961 579.163 878.025 565.935 885.124L524.053 899.006C529.251 891.332 541.188 874.876 547.353 870.44C558.179 859.652 583.393 837.235 597.639 833.873C615.446 829.67 667.931 800.517 664.712 761.527C663.93 745.838 654.727 717.151 624.176 727.911C619.394 728.74 607.734 736.819 599.347 762.51C591.704 774.878 571.478 801.503 551.721 809.063C537.558 817.415 513.893 839.853 500.577 865.111C498.91 868.272 496.708 871.977 494.396 875.867C487.374 887.683 479.333 901.213 482.172 906.441C483.177 912.025 496.322 921.412 511.529 932.271ZM588.841 997.385C576.799 961.349 546.947 937.214 533.526 929.651C530.705 928.127 532.197 928.162 533.295 928.369C551.799 934.223 562.923 945.309 572.191 954.546C573.991 956.34 575.722 958.064 577.422 959.666C587.878 969.52 602.947 1005 603.408 1007.57C603.554 1008.38 604.642 1011.83 606.063 1016.34L606.063 1016.34C609.117 1026.03 613.708 1040.6 613.781 1044.3C613.888 1049.72 627.219 1080.37 628.69 1082.11C630.161 1083.85 638.51 1101.3 627.327 1085.79C626.875 1085.17 625.026 1082.19 622.854 1078.69L622.85 1078.68L622.85 1078.68C619.467 1073.23 615.301 1066.52 614.405 1065.46C612.934 1063.72 603.893 1042.43 588.841 997.385ZM667.586 921.906C671.711 922.956 685.087 924.801 688.991 925.052C648.638 906.646 621.611 904.185 608.198 902.964C605.366 902.706 603.141 902.503 601.526 902.217C592.258 900.578 562.703 900.393 547.608 904.967C532.96 909.405 535.812 909.628 539.75 909.936L540.114 909.965C541.233 910.054 542.612 909.975 544.43 909.871L544.43 909.871C547.95 909.67 553.119 909.375 561.252 910.022C579.449 906.597 611.574 910.796 620.204 912.725C629.54 914.812 642.052 917.093 652 918.906C659.403 920.255 665.386 921.346 667.586 921.906ZM625.545 778.359C617.137 788.998 595.978 808.668 591.939 811.955C588.681 814.607 583.672 818.04 577.643 822.173L577.643 822.173C557.51 835.972 525.995 857.572 510.252 883.952C508.386 886.45 505.072 891.841 506.745 893.417C512.963 886.153 529.267 867.243 532.237 864.589C562.318 837.71 569.009 834.75 577.057 831.189C578.882 830.382 580.777 829.544 583.03 828.389C593.721 822.909 611.376 808.99 618.143 798.34C622.897 790.857 623.759 786.361 624.46 782.707C624.756 781.161 625.024 779.766 625.545 778.359Z" fill="#212121" fill-opacity="0.08"/>
<path fill-rule="evenodd" clip-rule="evenodd" d="M-88.6867 766.957C-60.3846 761.126 -27.115 754.271 -11.0722 761.448C8.26874 768.174 50.3774 786.646 78.2324 814.136C90.4882 823.748 123.722 837.473 151.515 827.504C170.12 820.83 194.302 807.956 188.7 780.065C181.826 765.062 181.258 764.889 151.286 755.75C145.3 753.925 138.141 751.742 129.526 749.012C102.415 737.549 67.3661 724 47.2103 719.55C45.0264 719.367 42.5524 719.128 39.8264 718.865C11.7277 716.148 -43.1594 710.841 -83.3245 738.504C-85.8134 741.476 -88.686 743.681 -89.6787 741.72C-91.3952 738.328 -69.9201 722.933 -59.3318 715.816C-42.259 701.652 -2.84815 671.112 18.2136 662.259C44.5408 651.193 106.058 613.279 102.281 576.029C100.853 562.694 86.3165 541.332 39.5952 562.569C-18.8065 589.116 -81.2909 663.669 -85.8124 681.02L-107.657 728.979C-110.159 718.195 -114.882 694.377 -113.762 685.375C-114.422 667.132 -113.587 626.845 -104.965 611.636C-94.1889 592.626 -77.1124 522.981 -113.88 494.144C-128.258 482.091 -160.859 466.86 -176.238 502.359C-179.395 507.22 -181.784 523.993 -166.089 552.199C-161.462 568.936 -154.561 608.27 -163.98 631.715C-168.163 650.903 -167.722 689.851 -156.409 722.022C-154.993 726.049 -153.535 730.986 -152.005 736.169C-147.356 751.915 -142.033 769.944 -135.149 771.701C-129.441 775.355 -110.545 771.461 -88.6867 766.957ZM28.9409 621.84C33.2098 619.079 45.6866 608.86 49.0757 605.644C0.188947 626.048 -23.9102 647.724 -35.8703 658.482L-35.8704 658.482L-35.8706 658.482L-35.8708 658.483C-38.3957 660.754 -40.3795 662.538 -41.9414 663.721C-50.9016 670.508 -75.0602 696.247 -83.3101 713.184C-91.3154 729.619 -88.8042 727.301 -85.3372 724.102C-85.2312 724.004 -85.1243 723.905 -85.0169 723.807C-84.0295 722.898 -82.9793 721.626 -81.5941 719.95L-81.594 719.95L-81.5939 719.949L-81.5938 719.949C-78.9116 716.702 -74.9734 711.935 -67.804 705.336C-56.0298 686.616 -26.2686 661.884 -17.5722 655.891C-8.16305 649.407 3.99277 640.299 13.6583 633.057L13.6585 633.057L13.6602 633.056L13.6623 633.054C20.8529 627.667 26.6647 623.312 28.9409 621.84ZM31.1229 752.101C-10.2204 733.392 -55.5996 739.945 -73.1212 745.56C-76.7463 746.795 -75.5048 745.516 -74.4309 744.722C-54.2805 733.266 -35.537 732.523 -19.9207 731.904L-19.9188 731.904C-16.8865 731.783 -13.9721 731.668 -11.1883 731.479C5.93278 730.32 49.2486 745.93 51.868 747.607C52.6997 748.139 56.6078 749.99 61.71 752.405L61.7103 752.405C72.679 757.599 89.1661 765.404 92.4671 768.345C97.3037 772.653 134.978 785.863 137.698 785.988C140.417 786.113 162.477 792.963 139.815 790.171C138.899 790.058 134.784 789.258 129.951 788.318C122.429 786.856 113.167 785.055 111.511 784.979C108.792 784.854 82.8021 775.489 31.1229 752.101ZM-130.936 542.117C-128.443 558.121 -128.392 592.625 -128.792 598.833C-129.114 603.84 -130.174 611.014 -131.449 619.651L-131.449 619.651L-131.449 619.652C-135.708 648.491 -142.375 693.635 -132.048 728.844C-131.375 732.507 -129.344 739.786 -126.604 739.601C-127.919 728.256 -131.247 698.621 -131.16 693.864C-130.282 645.691 -127.442 637.426 -124.026 627.486L-124.026 627.485C-123.252 625.231 -122.448 622.891 -121.63 619.98C-117.75 606.166 -115.608 579.399 -119.443 564.825C-122.137 554.584 -125.376 550.179 -128.008 546.598C-129.121 545.083 -130.127 543.716 -130.936 542.117Z" fill="#212121" fill-opacity="0.08"/>
<path fill-rule="evenodd" clip-rule="evenodd" d="M238.612 412.636C238.704 402.461 239.944 382.532 241.347 377.52C242.749 372.508 248.059 340.051 246.827 335.335C246.733 334.976 246.614 334.436 246.461 333.741L246.461 333.74L246.461 333.739L246.46 333.736L246.46 333.735L246.46 333.734C244.602 325.292 237.723 294.042 209.713 285.942C199.826 282.313 180.215 282.38 162.759 306.138C155.443 317.415 156.183 343.71 161.657 362.992C165.86 377.887 177.503 409.935 190.449 418.966C193.573 420.995 198.042 424.554 190.921 422.563C188.574 421.906 183.612 418.839 177.21 414.882L177.21 414.882L177.21 414.882C161.07 404.905 135.781 389.273 120.197 392.371C101.847 394.414 97.0126 408.58 96.8891 415.407C96.876 426.182 104.898 451.185 137.092 465.004C161.519 473.786 210.808 493.732 212.55 503.259C200.751 498.916 174.41 489.857 163.436 488.372C149.718 486.516 105.476 480.745 110.202 516.71C111.262 526.327 121.549 546.195 154.219 548.731C175.852 551.783 220.536 558.431 226.212 560.612C233.307 563.338 247.368 572.467 247.762 575.464C247.938 576.805 244.905 576.126 240.536 575.147L240.536 575.147L240.535 575.147C235.141 573.938 227.711 572.274 221.767 573.392C211.296 572.939 188.931 576.122 183.242 592.48C182.137 601.162 185.96 613.16 216.287 615.577C216.979 615.632 217.841 615.713 218.846 615.806L218.858 615.807L218.862 615.808C226.248 616.497 241.292 617.902 252.996 615.291C256.54 616.082 261.575 616.568 266.638 617.057C273.867 617.755 281.154 618.459 284.245 620.061C284.953 620.586 285.693 621.183 286.464 621.804C290.594 625.137 295.584 629.163 301.002 626.396C304.805 624.27 311.71 618.403 308.901 611.942C307.377 608.436 302.763 603.382 297.939 598.099C291.653 591.212 285.01 583.936 284.386 579.187C284.09 576.938 282.98 574.182 281.793 571.235C278.549 563.185 274.729 553.702 285.342 549.183L324.476 544.04C325.422 543.915 326.51 543.788 327.712 543.647L327.716 543.647C339.508 542.267 362.272 539.603 370.462 525.801C379.487 510.59 376.73 489.61 350.42 485.141C324.109 480.671 285.055 486.414 267.466 492.384C253.395 497.16 247.784 501.068 246.738 502.425L241.854 465.261L259.313 462.966C268.946 461.7 304.833 455.155 314.882 447.737C316.477 446.559 318.489 445.265 320.716 443.833C332.521 436.242 350.378 424.759 344.314 406.062C337.107 383.838 312.079 379.81 286.062 386.888C274.537 390.842 250.815 400.007 245.049 405.693L238.612 412.636ZM202.67 350.554C204.332 350.335 205.468 348.548 205.207 346.562C204.946 344.575 203.387 343.142 201.724 343.361C200.062 343.579 198.926 345.367 199.187 347.353C199.448 349.339 201.007 350.772 202.67 350.554ZM201.82 320.788C202.211 323.767 201.181 326.36 199.518 326.578C197.856 326.796 196.191 324.558 195.799 321.579C195.408 318.599 196.438 316.007 198.1 315.788C199.763 315.57 201.428 317.808 201.82 320.788ZM217.998 314.983C219.967 315.394 222.053 313.409 222.659 310.549C223.264 307.689 222.158 305.038 220.19 304.627C218.221 304.216 216.134 306.201 215.529 309.061C214.924 311.92 216.029 314.572 217.998 314.983ZM233.155 334.495C232.549 337.355 230.463 339.34 228.494 338.929C226.525 338.518 225.42 335.866 226.025 333.007C226.63 330.147 228.717 328.162 230.686 328.573C232.654 328.984 233.76 331.635 233.155 334.495ZM224.578 365.053C226.547 365.464 228.633 363.479 229.239 360.619C229.844 357.759 228.738 355.108 226.77 354.697C224.801 354.286 222.714 356.271 222.109 359.13C221.504 361.99 222.609 364.642 224.578 365.053ZM229.824 383.714C229.219 386.573 227.132 388.558 225.163 388.147C223.194 387.736 222.089 385.085 222.694 382.225C223.3 379.366 225.386 377.381 227.355 377.792C229.324 378.203 230.429 380.854 229.824 383.714ZM178.667 365.71C180.653 365.385 181.879 362.784 181.405 359.901C180.931 357.018 178.938 354.945 176.952 355.27C174.967 355.596 173.741 358.197 174.214 361.08C174.688 363.963 176.682 366.036 178.667 365.71ZM174.799 337.598C175.273 340.481 174.047 343.082 172.062 343.408C170.076 343.733 168.082 341.66 167.609 338.777C167.135 335.894 168.361 333.293 170.346 332.967C172.332 332.642 174.326 334.715 174.799 337.598ZM180.098 311.75C182.104 311.903 183.915 309.666 184.142 306.753C184.37 303.839 182.929 301.354 180.923 301.2C178.917 301.047 177.106 303.284 176.878 306.198C176.65 309.111 178.092 311.597 180.098 311.75ZM204.399 298.148C203.467 300.919 201.164 302.652 199.257 302.017C197.349 301.383 196.558 298.622 197.491 295.85C198.423 293.079 200.725 291.347 202.633 291.981C204.541 292.616 205.332 295.377 204.399 298.148ZM201.427 376.548C203.335 377.183 205.637 375.45 206.569 372.679C207.502 369.907 206.711 367.146 204.803 366.512C202.895 365.877 200.593 367.61 199.661 370.381C198.728 373.153 199.519 375.914 201.427 376.548ZM216.145 401.832C216.537 404.812 215.237 407.439 213.242 407.702C211.247 407.964 209.312 405.761 208.921 402.782C208.529 399.802 209.829 397.174 211.824 396.912C213.819 396.65 215.754 398.853 216.145 401.832ZM189.467 397.905C191.145 396.799 191.158 393.871 189.494 391.365C187.831 388.859 185.122 387.724 183.443 388.831C181.764 389.937 181.751 392.865 183.415 395.371C185.078 397.876 187.788 399.011 189.467 397.905ZM127.456 405.697C129.401 407.534 129.854 410.203 128.468 411.657C127.082 413.111 124.382 412.8 122.437 410.962C120.492 409.124 120.039 406.455 121.425 405.001C122.811 403.547 125.511 403.859 127.456 405.697ZM115.339 424.446C116.779 422.936 116.37 420.221 114.425 418.383C112.48 416.545 109.736 416.28 108.296 417.791C106.856 419.301 107.265 422.016 109.21 423.854C111.155 425.692 113.899 425.957 115.339 424.446ZM132.03 432.406C133.421 435.087 133.043 438.037 131.185 438.994C129.327 439.951 126.694 438.552 125.303 435.871C123.912 433.189 124.291 430.24 126.148 429.283C128.006 428.326 130.639 429.724 132.03 432.406ZM154.905 424.696C156.197 423.058 155.313 420.219 152.929 418.355C150.546 416.492 147.566 416.309 146.274 417.946C144.981 419.584 145.866 422.423 148.25 424.287C150.633 426.15 153.613 426.334 154.905 424.696ZM151.636 446.425C153.246 448.981 153.115 451.952 151.344 453.059C149.572 454.166 146.831 452.991 145.221 450.435C143.611 447.878 143.742 444.907 145.513 443.8C147.285 442.693 150.026 443.868 151.636 446.425ZM177.318 436.229C179.088 435.119 179.214 432.149 177.6 429.594C175.986 427.04 173.243 425.869 171.473 426.979C169.703 428.09 169.577 431.06 171.191 433.615C172.805 436.169 175.549 437.339 177.318 436.229ZM181.598 453.757C182.791 456.532 182.199 459.447 180.277 460.267C178.355 461.088 175.83 459.504 174.638 456.729C173.445 453.954 174.037 451.04 175.959 450.219C177.881 449.398 180.406 450.982 181.598 453.757ZM206.744 437.291C209.026 436.556 209.949 433.103 208.808 429.577C207.666 426.052 204.891 423.789 202.61 424.524C200.328 425.259 199.405 428.713 200.546 432.238C201.688 435.764 204.463 438.026 206.744 437.291ZM226.685 429.614C226.26 432.465 224.393 434.552 222.517 434.277C220.64 434.001 219.463 431.466 219.889 428.615C220.314 425.764 222.181 423.676 224.058 423.952C225.935 424.228 227.111 426.762 226.685 429.614ZM257.328 416.729C258.846 417.861 261.484 416.909 263.221 414.602C264.958 412.295 265.136 409.506 263.618 408.374C262.101 407.242 259.462 408.194 257.725 410.501C255.988 412.808 255.811 415.597 257.328 416.729ZM299.344 409.853C297.607 412.161 294.969 413.113 293.451 411.981C291.933 410.848 292.111 408.06 293.848 405.753C295.585 403.446 298.224 402.493 299.741 403.626C301.259 404.758 301.081 407.546 299.344 409.853ZM313.864 399.544C315.382 400.676 318.021 399.724 319.758 397.417C321.495 395.11 321.672 392.321 320.155 391.189C318.637 390.057 315.998 391.009 314.261 393.316C312.524 395.623 312.347 398.412 313.864 399.544ZM327.252 417.162C325.515 419.469 322.877 420.422 321.359 419.289C319.842 418.157 320.019 415.369 321.756 413.062C323.493 410.755 326.132 409.802 327.649 410.935C329.167 412.067 328.989 414.855 327.252 417.162ZM301.576 436.524C303.094 437.656 305.732 436.704 307.469 434.397C309.206 432.09 309.384 429.301 307.866 428.169C306.349 427.037 303.71 427.989 301.973 430.296C300.236 432.603 300.058 435.392 301.576 436.524ZM283.331 427.814C281.594 430.121 278.956 431.073 277.438 429.941C275.92 428.809 276.098 426.02 277.835 423.713C279.572 421.406 282.21 420.454 283.728 421.586C285.246 422.718 285.068 425.507 283.331 427.814ZM255.073 448.595C256.963 448.756 258.698 446.558 258.947 443.687C259.197 440.816 257.867 438.357 255.976 438.197C254.086 438.036 252.351 440.233 252.102 443.105C251.852 445.976 253.182 448.434 255.073 448.595ZM230.994 454.678C230.745 457.55 229.01 459.747 227.12 459.586C225.229 459.426 223.899 456.968 224.149 454.096C224.398 451.225 226.133 449.027 228.023 449.188C229.914 449.349 231.244 451.807 230.994 454.678ZM209.978 464.026C211.633 463.101 211.829 460.314 210.414 457.801C209 455.288 206.512 454.001 204.856 454.926C203.201 455.852 203.005 458.639 204.419 461.152C205.834 463.664 208.322 464.951 209.978 464.026ZM219.696 480.555C219.447 483.426 217.712 485.624 215.822 485.463C213.931 485.302 212.601 482.844 212.85 479.972C213.1 477.101 214.835 474.904 216.725 475.064C218.616 475.225 219.946 477.683 219.696 480.555ZM141.023 500.252C142.453 498.792 141.997 496.123 140.004 494.29C138.011 492.458 135.236 492.157 133.806 493.617C132.375 495.077 132.831 497.746 134.824 499.578C136.817 501.41 139.592 501.712 141.023 500.252ZM126.401 505.838C128.394 507.67 128.804 510.385 127.318 511.902C125.832 513.419 123.011 513.164 121.018 511.332C119.025 509.5 118.615 506.784 120.101 505.267C121.587 503.75 124.408 504.005 126.401 505.838ZM137.86 531.514C139.113 529.811 138.076 527.019 135.542 525.278C133.009 523.537 129.94 523.505 128.686 525.208C127.433 526.911 128.471 529.703 131.004 531.444C133.537 533.185 136.606 533.216 137.86 531.514ZM154.132 516.218C156.887 517.611 158.304 520.239 157.297 522.088C156.291 523.937 153.241 524.307 150.486 522.914C147.732 521.521 146.315 518.893 147.321 517.044C148.328 515.195 151.378 514.826 154.132 516.218ZM172.095 542.917C173.342 541.21 172.295 538.422 169.756 536.689C167.217 534.956 164.147 534.934 162.9 536.641C161.652 538.348 162.699 541.136 165.238 542.869C167.778 544.602 170.847 544.624 172.095 542.917ZM164.938 500.466C167.7 501.846 169.129 504.467 168.132 506.321C167.134 508.174 164.086 508.558 161.324 507.177C158.563 505.797 157.133 503.176 158.131 501.322C159.129 499.469 162.176 499.086 164.938 500.466ZM196.163 530.48C197.192 528.642 195.807 525.998 193.069 524.575C190.331 523.151 187.278 523.486 186.249 525.323C185.22 527.161 186.606 529.805 189.343 531.229C192.081 532.653 195.134 532.318 196.163 530.48ZM226.922 525.992C228.083 529.516 227.12 532.976 224.772 533.72C222.424 534.464 219.579 532.21 218.417 528.686C217.256 525.162 218.219 521.702 220.567 520.958C222.916 520.215 225.761 522.468 226.922 525.992ZM245.046 530.607C247.349 530.045 248.659 527.373 247.972 524.638C247.284 521.904 244.859 520.143 242.556 520.704C240.252 521.266 238.942 523.938 239.629 526.672C240.317 529.407 242.742 531.168 245.046 530.607ZM267.524 519.988C267.191 522.113 265.083 523.579 262.816 523.263C260.549 522.947 258.982 520.968 259.316 518.843C259.649 516.719 261.757 515.253 264.024 515.569C266.291 515.885 267.858 517.864 267.524 519.988ZM273.505 504.855C275.062 505.983 277.778 505.02 279.573 502.705C281.367 500.39 281.56 497.599 280.004 496.471C278.447 495.343 275.731 496.306 273.936 498.621C272.142 500.937 271.949 503.728 273.505 504.855ZM309.721 495.971C307.01 497.183 304.16 496.774 303.355 495.058C302.55 493.343 304.095 490.969 306.805 489.757C309.516 488.545 312.366 488.954 313.171 490.669C313.976 492.385 312.431 494.759 309.721 495.971ZM332.805 495.841C334.362 496.968 337.078 496.005 338.873 493.69C340.667 491.375 340.86 488.584 339.304 487.456C337.747 486.329 335.031 487.291 333.236 489.607C331.442 491.922 331.249 494.713 332.805 495.841ZM346.732 507.298C344.938 509.613 342.221 510.576 340.665 509.449C339.108 508.321 339.301 505.53 341.096 503.215C342.891 500.899 345.607 499.937 347.164 501.064C348.72 502.192 348.527 504.983 346.732 507.298ZM318.726 529.636C319.316 531.433 322.094 532.165 324.931 531.27C327.767 530.375 329.589 528.193 328.999 526.395C328.409 524.597 325.631 523.866 322.795 524.76C319.958 525.655 318.137 527.838 318.726 529.636ZM359.177 525.207C356.74 526.882 353.857 526.992 352.737 525.452C351.617 523.913 352.686 521.307 355.123 519.632C357.56 517.958 360.443 517.848 361.563 519.388C362.683 520.927 361.614 523.533 359.177 525.207ZM356.877 505.334C357.996 506.873 360.88 506.764 363.317 505.089C365.754 503.414 366.822 500.809 365.703 499.269C364.583 497.73 361.7 497.839 359.263 499.514C356.825 501.189 355.757 503.794 356.877 505.334ZM298.76 533.488C295.924 534.383 293.146 533.651 292.556 531.853C291.966 530.055 293.788 527.873 296.624 526.978C299.461 526.083 302.239 526.815 302.829 528.612C303.418 530.41 301.597 532.593 298.76 533.488ZM313.381 512.503C314.35 514.137 317.229 514.284 319.813 512.831C322.396 511.379 323.705 508.877 322.737 507.244C321.769 505.61 318.889 505.463 316.306 506.915C313.722 508.368 312.413 510.87 313.381 512.503ZM288.829 517.349C287.034 519.664 284.318 520.627 282.761 519.499C281.205 518.372 281.398 515.581 283.192 513.266C284.987 510.95 287.703 509.987 289.26 511.115C290.816 512.243 290.623 515.034 288.829 517.349ZM268.618 541.578C270.102 542.794 272.871 541.988 274.803 539.778C276.734 537.569 277.097 534.792 275.613 533.577C274.129 532.361 271.36 533.167 269.428 535.377C267.496 537.587 267.133 540.363 268.618 541.578ZM256.193 547.472C258.174 549.608 258.601 552.369 257.145 553.64C255.69 554.911 252.903 554.21 250.921 552.075C248.94 549.939 248.513 547.178 249.969 545.907C251.425 544.636 254.211 545.337 256.193 547.472ZM209.917 547.272C211.092 545.753 210.119 543.129 207.743 541.412C205.367 539.694 202.489 539.533 201.314 541.052C200.139 542.571 201.112 545.195 203.488 546.913C205.864 548.63 208.742 548.791 209.917 547.272ZM193.643 509.084C196.019 510.801 196.667 513.845 195.092 515.882C193.517 517.918 190.313 518.177 187.938 516.46C185.562 514.742 184.913 511.699 186.488 509.662C188.064 507.625 191.267 507.366 193.643 509.084ZM237.549 508.54C238.803 506.919 237.894 504.212 235.518 502.495C233.142 500.777 230.2 500.699 228.946 502.32C227.692 503.941 228.601 506.648 230.977 508.366C233.353 510.083 236.296 510.161 237.549 508.54ZM234.82 547.066C236.776 549.224 237.17 551.99 235.7 553.245C234.229 554.5 231.451 553.768 229.495 551.61C227.539 549.452 227.146 546.686 228.616 545.431C230.086 544.176 232.864 544.908 234.82 547.066ZM266.075 577.153C268.06 575.903 268.364 572.831 266.753 570.291C265.142 567.752 262.227 566.706 260.242 567.956C258.257 569.205 257.954 572.277 259.564 574.817C261.175 577.357 264.09 578.402 266.075 577.153ZM280.718 590.203C281.647 593.061 280.589 595.964 278.355 596.686C276.122 597.407 273.559 595.675 272.63 592.817C271.701 589.958 272.759 587.056 274.993 586.334C277.226 585.612 279.789 587.345 280.718 590.203ZM249.047 590.889C250.592 589.127 250.001 586.098 247.729 584.123C245.456 582.148 242.361 581.976 240.817 583.738C239.273 585.5 239.863 588.529 242.136 590.504C244.409 592.479 247.503 592.651 249.047 590.889ZM263.296 602.187C266.182 603.065 267.963 605.589 267.275 607.824C266.587 610.06 263.69 611.16 260.804 610.283C257.919 609.405 256.138 606.881 256.826 604.645C257.514 602.41 260.411 601.309 263.296 602.187ZM223.116 607.135C225.584 607.049 227.52 605.091 227.441 602.762C227.362 600.432 225.298 598.613 222.831 598.699C220.363 598.784 218.427 600.742 218.506 603.071C218.585 605.401 220.649 607.22 223.116 607.135ZM216.179 589.807C214.895 591.937 211.599 592.318 208.817 590.657C206.034 588.997 204.82 585.924 206.103 583.793C207.387 581.663 210.684 581.282 213.466 582.943C216.248 584.604 217.463 587.677 216.179 589.807ZM195.917 603.768C198.721 605.442 202.043 605.058 203.337 602.911C204.631 600.764 203.406 597.667 200.602 595.994C197.798 594.32 194.477 594.704 193.183 596.851C191.889 598.998 193.113 602.095 195.917 603.768Z" fill="#212121" fill-opacity="0.08"/>
<g filter="url(#filter0_f_742_1469)">
<path fill-rule="evenodd" clip-rule="evenodd" d="M889.124 479.562C880.405 487.556 862.486 502.313 857.114 505.097C851.743 507.881 819.95 529.118 816.92 533.907C816.689 534.271 816.325 534.801 815.856 535.482L815.854 535.484L815.854 535.485L815.854 535.485L815.852 535.487L815.852 535.488L815.851 535.489C810.152 543.765 789.054 574.401 804.392 604.628C809.152 615.909 824.766 632.521 858.803 628.506C874.19 625.776 895.947 604.287 907.989 584.339C917.312 568.951 935.308 533.633 932.712 515.468C931.957 511.203 931.435 504.582 935.393 512.213C936.697 514.727 938.027 521.377 939.743 529.956L939.743 529.956L939.743 529.957L939.743 529.957L939.744 529.958L939.744 529.958C944.07 551.587 950.849 585.477 965.845 596.263C982.138 610.235 998.011 603.104 1003.91 597.793C1013.08 589.256 1027.96 562.604 1014.16 524.285C1002.25 496.561 980.092 438.854 986.806 429.815C992.475 443.287 1005.67 472.858 1013.12 483.361C1022.42 496.49 1052.62 538.663 1079.43 506.115C1086.76 497.584 1095.48 473.081 1071.72 443.308C1057.15 422.505 1027.35 379.26 1024.7 372.707C1021.39 364.515 1017.99 345.325 1020.23 342.613C1021.23 341.399 1023.06 344.515 1025.69 349.004C1028.94 354.547 1033.42 362.182 1039.09 366.345C1047.01 375.603 1067.46 392.082 1085.87 383.939C1094.13 377.99 1101.29 365.224 1079.28 337.536C1078.78 336.9 1078.16 336.098 1077.44 335.164L1077.44 335.163L1077.44 335.163L1077.44 335.162C1072.16 328.339 1061.42 314.443 1049.92 306.569C1047.78 302.93 1044.2 298.266 1040.6 293.575C1035.45 286.879 1030.27 280.129 1029.18 276.231C1029.06 275.213 1028.99 274.11 1028.9 272.963C1028.46 266.81 1027.92 259.375 1021.27 256.967C1016.45 255.421 1005.98 254.208 1002.72 261.72C1000.95 265.797 1000.32 273.727 999.654 282.018C998.79 292.823 997.877 304.24 994.337 308.537C992.66 310.573 991.199 313.703 989.636 317.05C985.369 326.192 980.341 336.962 968.082 331.528L932.666 302.355C931.809 301.648 930.836 300.824 929.762 299.913C919.234 290.987 898.911 273.756 880.686 277.747C860.601 282.145 844.96 301.132 862.035 327.035C879.109 352.937 914.972 381.568 933.998 391.778C949.22 399.946 956.992 401.613 958.975 401.426L931.27 435.06L915.469 422.044C906.751 414.863 872.72 389.561 858.444 386.907C856.178 386.485 853.482 385.802 850.498 385.046L850.498 385.046C834.682 381.037 810.758 374.973 799.682 394.957C786.515 418.713 802.946 443.176 829.601 459.669C842.104 466.326 868.711 479.213 878.117 479.601L889.124 479.562ZM864.884 559.358C863.38 558.119 860.96 558.571 859.479 560.369C857.998 562.167 858.017 564.629 859.522 565.868C861.027 567.107 863.447 566.655 864.927 564.857C866.408 563.06 866.389 560.598 864.884 559.358ZM840.264 583.695C842.485 580.998 845.505 579.817 847.01 581.056C848.514 582.296 847.933 585.486 845.712 588.183C843.491 590.879 840.471 592.06 838.966 590.821C837.462 589.582 838.043 586.391 840.264 583.695ZM822.499 574.55C821.286 572.551 817.944 572.352 815.034 574.107C812.124 575.861 810.748 578.904 811.96 580.903C813.173 582.902 816.515 583.1 819.425 581.346C822.335 579.591 823.711 576.549 822.499 574.55ZM827.053 546.192C829.963 544.438 833.305 544.636 834.518 546.635C835.731 548.634 834.354 551.677 831.444 553.432C828.534 555.186 825.192 554.988 823.979 552.988C822.767 550.989 824.143 547.947 827.053 546.192ZM859.824 529.239C858.612 527.24 855.27 527.042 852.36 528.796C849.449 530.551 848.073 533.593 849.286 535.592C850.498 537.591 853.841 537.79 856.751 536.035C859.661 534.281 861.037 531.238 859.824 529.239ZM871.52 509.977C874.43 508.223 877.772 508.421 878.985 510.42C880.197 512.419 878.821 515.462 875.911 517.216C873.001 518.971 869.659 518.772 868.446 516.773C867.234 514.774 868.61 511.731 871.52 509.977ZM896.805 567.73C894.953 566.301 891.77 567.323 889.696 570.013C887.622 572.702 887.442 576.041 889.294 577.47C891.146 578.899 894.329 577.877 896.403 575.187C898.477 572.498 898.657 569.159 896.805 567.73ZM875.985 593.32C878.059 590.63 881.241 589.608 883.093 591.037C884.945 592.466 884.765 595.805 882.691 598.495C880.617 601.184 877.434 602.206 875.583 600.777C873.731 599.348 873.911 596.01 875.985 593.32ZM849.817 609.321C848.356 607.495 845.019 607.732 842.362 609.849C839.706 611.967 838.737 615.164 840.199 616.99C841.66 618.816 844.997 618.58 847.654 616.462C850.31 614.345 851.279 611.147 849.817 609.321ZM818.979 599.462C822.074 598.055 825.373 598.637 826.347 600.762C827.321 602.886 825.602 605.749 822.508 607.155C819.413 608.561 816.115 607.979 815.14 605.855C814.166 603.73 815.885 600.868 818.979 599.462ZM887.958 539.793C886.984 537.669 883.685 537.087 880.59 538.493C877.496 539.899 875.777 542.762 876.751 544.886C877.725 547.011 881.024 547.593 884.119 546.186C887.213 544.78 888.932 541.918 887.958 539.793ZM897.768 507.225C899.989 504.528 903.254 503.548 905.059 505.035C906.865 506.523 906.528 509.914 904.306 512.61C902.085 515.307 898.821 516.287 897.016 514.8C895.21 513.313 895.547 509.921 897.768 507.225ZM915.596 533.012C913.324 532.463 910.826 534.776 910.016 538.177C909.207 541.578 910.392 544.781 912.664 545.33C914.935 545.879 917.433 543.567 918.243 540.165C919.053 536.764 917.867 533.561 915.596 533.012ZM971.408 579.523C971.427 576.413 973.335 573.911 975.67 573.935C978.005 573.959 979.883 576.501 979.864 579.611C979.845 582.722 977.937 585.224 975.602 585.2C973.266 585.175 971.389 582.634 971.408 579.523ZM996.955 574.946C994.529 574.921 992.547 577.422 992.528 580.533C992.509 583.643 994.46 586.185 996.886 586.211C999.312 586.236 1001.29 583.735 1001.31 580.624C1001.33 577.513 999.381 574.971 996.955 574.946ZM990.476 554.446C991.651 551.137 994.457 549.119 996.744 549.938C999.031 550.758 999.932 554.104 998.757 557.414C997.582 560.723 994.775 562.741 992.488 561.922C990.201 561.102 989.3 557.756 990.476 554.446ZM965.775 541.126C963.359 541.328 961.648 544.331 961.955 547.835C962.263 551.339 964.471 554.017 966.888 553.815C969.305 553.614 971.015 550.61 970.708 547.107C970.401 543.603 968.192 540.925 965.775 541.126ZM986.834 526.664C987.73 523.268 990.358 521.023 992.704 521.65C995.05 522.276 996.227 525.538 995.331 528.935C994.436 532.331 991.808 534.576 989.462 533.949C987.115 533.323 985.939 530.061 986.834 526.664ZM957.796 512.932C955.449 512.309 952.825 514.558 951.935 517.956C951.045 521.354 952.226 524.614 954.574 525.237C956.921 525.86 959.545 523.611 960.435 520.213C961.325 516.815 960.144 513.555 957.796 512.932ZM969.297 495.388C970.708 492.173 973.655 490.363 975.877 491.346C978.099 492.328 978.756 495.73 977.344 498.944C975.932 502.159 972.986 503.969 970.764 502.987C968.541 502.005 967.885 498.602 969.297 495.388ZM935.355 487.085C932.921 485.729 929.253 487.684 927.163 491.451C925.073 495.218 925.353 499.371 927.787 500.726C930.221 502.082 933.889 500.127 935.979 496.36C938.069 492.593 937.79 488.44 935.355 487.085ZM913.01 476.233C915.77 474.333 919.025 474.263 920.279 476.076C921.534 477.89 920.313 480.9 917.553 482.801C914.793 484.701 911.538 484.771 910.283 482.957C909.029 481.144 910.249 478.133 913.01 476.233ZM877.753 460.413C877.511 458.225 874.609 456.738 871.27 457.093C867.932 457.447 865.421 459.508 865.663 461.696C865.905 463.884 868.808 465.37 872.146 465.016C875.484 464.662 877.995 462.601 877.753 460.413ZM838.579 430.164C841.917 429.81 844.82 431.296 845.062 433.484C845.304 435.672 842.793 437.733 839.455 438.087C836.116 438.442 833.214 436.955 832.972 434.767C832.73 432.579 835.241 430.518 838.579 430.164ZM818.297 426.004C818.055 423.816 815.153 422.33 811.815 422.684C808.476 423.038 805.966 425.099 806.208 427.287C806.45 429.475 809.352 430.962 812.69 430.607C816.029 430.253 818.539 428.192 818.297 426.004ZM822.649 400.65C825.988 400.296 828.89 401.782 829.132 403.97C829.374 406.158 826.863 408.219 823.525 408.574C820.187 408.928 817.284 407.441 817.042 405.253C816.8 403.065 819.311 401.005 822.649 400.65ZM859.471 407.108C859.229 404.92 856.327 403.434 852.989 403.788C849.65 404.142 847.14 406.203 847.382 408.391C847.624 410.579 850.526 412.066 853.864 411.711C857.203 411.357 859.713 409.296 859.471 407.108ZM866.543 429.523C869.881 429.169 872.784 430.656 873.026 432.844C873.268 435.032 870.757 437.093 867.419 437.447C864.08 437.801 861.178 436.315 860.936 434.127C860.694 431.939 863.205 429.878 866.543 429.523ZM906.621 437.05C905.258 435.316 902.014 435.585 899.376 437.651C896.738 439.717 895.705 442.797 897.068 444.531C898.431 446.265 901.674 445.996 904.312 443.93C906.95 441.864 907.984 438.783 906.621 437.05ZM930.891 452.684C933.529 450.618 936.773 450.349 938.136 452.083C939.499 453.817 938.465 456.897 935.827 458.963C933.189 461.029 929.946 461.298 928.583 459.564C927.22 457.83 928.253 454.75 930.891 452.684ZM955.506 463.13C953.407 462.457 950.884 464.502 949.87 467.697C948.857 470.892 949.737 474.028 951.837 474.7C953.937 475.373 956.46 473.328 957.473 470.133C958.487 466.938 957.606 463.802 955.506 463.13ZM961.842 441.755C964.48 439.689 967.724 439.42 969.087 441.154C970.45 442.888 969.416 445.968 966.778 448.034C964.14 450.1 960.897 450.369 959.534 448.636C958.171 446.902 959.204 443.821 961.842 441.755ZM1041 492.983C1038.62 492.926 1036.72 495.43 1036.74 498.578C1036.76 501.725 1038.71 504.322 1041.09 504.379C1043.46 504.436 1045.37 501.931 1045.34 498.784C1045.32 495.637 1043.37 493.04 1041 492.983ZM1057.34 500.978C1057.32 497.831 1059.3 495.328 1061.77 495.388C1064.24 495.447 1066.26 498.046 1066.28 501.193C1066.31 504.34 1064.33 506.843 1061.86 506.784C1059.39 506.725 1057.37 504.125 1057.34 500.978ZM1070.07 470.871C1067.63 471.157 1066.08 474.253 1066.61 477.787C1067.14 481.321 1069.55 483.954 1071.99 483.668C1074.43 483.382 1075.98 480.286 1075.45 476.752C1074.92 473.218 1072.51 470.585 1070.07 470.871ZM1044.16 469.178C1043.16 465.732 1044.27 462.443 1046.64 461.832C1049.01 461.221 1051.74 463.519 1052.75 466.965C1053.75 470.411 1052.64 473.7 1050.27 474.311C1047.9 474.922 1045.17 472.624 1044.16 469.178ZM1052.6 432.734C1050.16 433.028 1048.62 436.13 1049.16 439.662C1049.71 443.195 1052.12 445.82 1054.56 445.527C1057 445.233 1058.54 442.131 1058 438.598C1057.46 435.066 1055.04 432.44 1052.6 432.734ZM1022.2 472.495C1021.19 469.053 1022.28 465.758 1024.65 465.136C1027.01 464.513 1029.76 466.799 1030.77 470.241C1031.79 473.682 1030.7 476.977 1028.33 477.599C1025.97 478.222 1023.22 475.936 1022.2 472.495ZM1022.94 422.147C1020.56 422.731 1019.41 426.005 1020.37 429.461C1021.34 432.917 1024.04 435.246 1026.42 434.662C1028.8 434.079 1029.95 430.804 1028.98 427.348C1028.02 423.892 1025.31 421.563 1022.94 422.147ZM994.723 399.572C996.797 395.79 1000.5 393.863 1003 395.269C1005.49 396.674 1005.83 400.88 1003.76 404.662C1001.69 408.444 997.982 410.371 995.487 408.966C992.991 407.56 992.65 403.355 994.723 399.572ZM984.267 380.508C981.962 378.996 978.652 380.002 976.874 382.756C975.096 385.509 975.523 388.967 977.827 390.479C980.132 391.991 983.442 390.985 985.22 388.231C986.999 385.478 986.572 382.02 984.267 380.508ZM957.412 369.829C959.482 368.427 962.4 369.055 963.93 371.232C965.46 373.409 965.021 376.31 962.951 377.712C960.881 379.115 957.963 378.486 956.434 376.309C954.904 374.132 955.342 371.231 957.412 369.829ZM939.808 376.753C939.531 374.536 936.558 372.991 933.167 373.303C929.776 373.615 927.251 375.665 927.527 377.882C927.804 380.099 930.777 381.644 934.168 381.332C937.559 381.02 940.084 378.97 939.808 376.753ZM903.527 353.03C906.707 354.372 908.621 357.118 907.802 359.163C906.982 361.208 903.74 361.778 900.559 360.436C897.379 359.094 895.465 356.348 896.284 354.303C897.104 352.258 900.346 351.688 903.527 353.03ZM885.103 333.518C884.826 331.301 881.853 329.756 878.462 330.068C875.071 330.38 872.546 332.43 872.822 334.647C873.099 336.864 876.072 338.409 879.463 338.097C882.854 337.785 885.379 335.735 885.103 333.518ZM883.79 312.591C887.181 312.28 890.155 313.824 890.431 316.041C890.708 318.258 888.183 320.309 884.792 320.62C881.401 320.932 878.428 319.388 878.151 317.171C877.874 314.953 880.399 312.903 883.79 312.591ZM924.988 318.671C926.047 316.744 924.465 313.803 921.455 312.102C918.444 310.402 915.144 310.586 914.084 312.513C913.025 314.44 914.606 317.381 917.617 319.082C920.628 320.782 923.928 320.599 924.988 318.671ZM889.135 287.81C892.492 288.552 894.872 290.915 894.452 293.088C894.032 295.261 890.971 296.42 887.614 295.678C884.257 294.935 881.877 292.572 882.297 290.399C882.717 288.227 885.778 287.067 889.135 287.81ZM874.074 305.528C874.494 303.355 872.113 300.992 868.757 300.25C865.4 299.507 862.339 300.667 861.918 302.839C861.499 305.012 863.879 307.375 867.236 308.118C870.592 308.86 873.654 307.701 874.074 305.528ZM944.102 332.579C947.113 334.279 948.695 337.22 947.635 339.148C946.575 341.075 943.276 341.259 940.265 339.558C937.254 337.858 935.672 334.917 936.732 332.989C937.791 331.062 941.091 330.878 944.102 332.579ZM914.672 336.803C915.292 334.684 913.133 332.121 909.849 331.078C906.565 330.035 903.401 330.907 902.781 333.026C902.161 335.145 904.32 337.708 907.604 338.751C910.888 339.794 914.052 338.922 914.672 336.803ZM938.266 353.824C941.657 353.512 944.63 355.057 944.907 357.274C945.184 359.491 942.659 361.541 939.268 361.853C935.877 362.165 932.903 360.621 932.627 358.403C932.35 356.186 934.875 354.136 938.266 353.824ZM974.888 351.775C974.744 349.549 971.862 347.836 968.452 347.947C965.042 348.058 962.395 349.953 962.54 352.178C962.684 354.403 965.566 356.117 968.976 356.006C972.386 355.894 975.033 354 974.888 351.775ZM989.756 357.656C989.998 354.278 992.007 351.725 994.241 351.953C996.476 352.182 998.091 355.106 997.848 358.484C997.606 361.862 995.598 364.415 993.363 364.187C991.128 363.958 989.513 361.034 989.756 357.656ZM1026.3 397.139C1024.07 397.345 1022.62 400.254 1023.04 403.635C1023.47 407.017 1025.61 409.59 1027.84 409.384C1030.06 409.177 1031.52 406.268 1031.09 402.887C1030.67 399.505 1028.52 396.932 1026.3 397.139ZM1006.76 441.264C1006.33 437.883 1008.4 434.917 1011.38 434.64C1014.36 434.363 1017.13 436.879 1017.55 440.261C1017.98 443.642 1015.9 446.608 1012.92 446.885C1009.94 447.162 1007.18 444.646 1006.76 441.264ZM971.462 404.387C969.089 404.607 967.511 407.527 967.936 410.909C968.361 414.29 970.629 416.853 973.002 416.632C975.374 416.411 976.953 413.491 976.527 410.11C976.102 406.729 973.834 404.166 971.462 404.387ZM1006.37 376.142C1006.65 372.768 1008.69 370.239 1010.92 370.493C1013.15 370.747 1014.73 373.688 1014.45 377.061C1014.17 380.435 1012.13 382.964 1009.9 382.71C1007.67 382.456 1006.08 379.515 1006.37 376.142ZM1007.14 325.715C1004.5 325.019 1001.65 327.198 1000.77 330.582C999.887 333.965 1001.31 337.272 1003.95 337.967C1006.58 338.663 1009.44 336.484 1010.32 333.1C1011.2 329.717 1009.77 326.41 1007.14 325.715ZM1006.61 302.919C1008.3 299.862 1011.61 298.459 1013.99 299.784C1016.38 301.109 1016.94 304.662 1015.25 307.719C1013.55 310.775 1010.25 312.179 1007.86 310.854C1005.48 309.528 1004.92 305.976 1006.61 302.919ZM1032.32 329.288C1029.59 329.374 1027.49 332.279 1027.61 335.776C1027.74 339.274 1030.05 342.041 1032.77 341.955C1035.49 341.87 1037.6 338.965 1037.47 335.467C1037.35 331.969 1035.04 329.203 1032.32 329.288ZM1030.61 308.217C1029.07 305.069 1029.8 301.553 1032.25 300.365C1034.69 299.176 1037.93 300.764 1039.47 303.913C1041.01 307.061 1040.28 310.577 1037.84 311.765C1035.39 312.954 1032.16 311.366 1030.61 308.217ZM1066.69 338.434C1064.66 336.405 1061.46 336.313 1059.55 338.228C1057.63 340.143 1057.72 343.341 1059.75 345.369C1061.78 347.398 1064.98 347.49 1066.9 345.575C1068.82 343.66 1068.72 340.463 1066.69 338.434ZM1057.47 358.079C1060.3 357.48 1063.24 359.979 1064.03 363.66C1064.83 367.342 1063.18 370.812 1060.35 371.411C1057.53 372.01 1054.59 369.511 1053.79 365.83C1052.99 362.148 1054.64 358.678 1057.47 358.079ZM1085.41 364.217C1084.61 360.506 1081.65 357.988 1078.8 358.592C1075.95 359.195 1074.28 362.693 1075.09 366.403C1075.89 370.113 1078.85 372.632 1081.7 372.028C1084.55 371.424 1086.21 367.927 1085.41 364.217Z" fill="#212121" fill-opacity="0.08"/>
</g>
<path fill-rule="evenodd" clip-rule="evenodd" d="M182.226 244.553C182.699 249.539 183.156 254.353 174.272 254.867C166.033 256.589 129.024 260.062 122.001 246.374C118.759 237.816 111.526 220.713 108.53 220.764C107.63 220.779 106.57 220.319 105.479 219.845C102.03 218.348 98.2688 216.715 98.2442 229.519C98.8729 232.941 102.082 241.546 109.889 248.599C113.014 251.978 116.953 259.784 107.707 263.979C98.6802 267.094 79.8653 272.591 76.8216 269.655C75.7739 268.644 74.2838 267.81 72.5705 266.85C68.0621 264.325 62.0085 260.935 58.4041 251.196C52.6995 240.594 42.8713 215.729 49.1955 201.086C47.0289 200.652 41.5871 202.609 37.1528 213.909C35.1033 218.655 30.7639 229.563 29.8023 235.232C29.7741 235.398 30.1789 238.283 30.357 238.25C30.5352 238.218 34.4223 255.603 30.5465 256.315C25.7017 257.205 -0.643223 260.335 -23.4071 225.038C-31.3505 212.722 -42.7427 187.275 -19.4913 147.553C-22.5023 147.066 -30.7332 149.743 -39.5686 164.349C-43.2469 172.722 -50.9188 192.522 -52.18 204.737C-53.2741 210.139 -57.2485 219.399 -64.3937 213.223C-73.3251 205.502 -95.5508 161.53 -97.2391 153.727L-97.4592 152.71C-101.642 133.392 -108.496 101.741 -102.791 79.229C-103.6 64.6069 -97.3912 32.3017 -66.0849 20.0578C-55.6479 14.3951 -31.942 4.17192 -20.6141 8.58099C-19.3382 1.89731 -13.6612 -13.5422 -1.16085 -21.8309C14.4646 -32.1918 111.846 -57.577 141.686 -21.245C145.491 -17.5754 148.619 -9.41255 130.693 -6.11833C115.496 -4.78188 83.9392 1.10059 79.2866 13.9386C77.8936 15.4429 76.9243 18.1174 84.1915 16.782C93.2755 15.1126 139.276 14.5432 148.705 16.9456C157.243 19.1211 189.044 38.8659 190.194 55.3446C189.245 59.2637 185.088 66.3937 176.053 63.5604C173.772 60.2348 166.524 53.9526 155.777 55.4283L112.83 60.2001C118.062 60.2788 129.381 61.6884 133.319 62.676C133.574 62.7401 134.139 62.7756 134.964 62.8274C143.614 63.3702 180.94 65.7126 192.376 121.724C192.914 125.786 192.084 133.761 184.462 133.164C172.38 131.016 147.007 126.941 142.162 127.831C152.43 132.602 173.362 142.943 174.952 146.146C175.238 146.722 175.795 147.571 176.51 148.663C180.765 155.155 190.63 170.21 182.497 187.199C180.544 195.88 176.817 214.206 177.527 218.07C177.774 219.415 177.949 221.16 178.153 223.192C178.682 228.46 179.404 235.658 182.076 242.823C182.116 243.398 182.171 243.977 182.226 244.553ZM108.475 179.582C103.018 176.008 91.6088 168.202 89.6228 165.572C88.849 164.547 88.9987 165.899 89.273 168.376C89.8786 173.847 91.0916 184.803 84.3111 187.768C74.4597 192.075 70.2437 169.133 74.5754 155.231L47.8921 132.673C45.9767 141.555 40.2319 161.167 32.5763 168.566L19.0497 183.534C16.7752 184.784 12.6867 185.702 14.5285 179.372C14.843 178.291 15.1336 177.016 15.4661 175.558C17.5671 166.344 21.3386 149.803 43.3709 128.511C33.8309 118.614 12.4402 92.3793 3.19825 66.6166C-1.6974 70.6369 -12.9644 78.8237 -18.8669 79.4092C-22.4434 81.5227 -30.3335 86.5093 -33.2811 89.5474C-36.8176 94.1501 -44.7385 103.511 -48.1298 104.134C-51.0632 104.673 -50.6807 100.419 -50.3506 96.7474C-50.2036 95.1127 -50.067 93.5934 -50.2378 92.6636C-50.7926 89.645 -39.8594 70.7846 -33.4197 68.353C-28.2651 65.7414 -14.6516 60.7848 -1.43386 61.8508C-0.791287 61.9408 0.217441 61.2977 -0.888348 58.0059C-1.22046 57.0172 -2.09728 55.2279 -3.33233 52.7075C-7.23748 44.7381 -14.7242 29.4599 -19.8975 9.07346C-20.2303 7.26228 -19.8485 4.57083 -15.6583 8.29442C-10.4206 12.9489 9.17573 48.0429 9.61952 50.4578C9.00777 45.9934 9.98294 34.0392 18.7776 21.9379C21.5259 18.1562 23.5973 15.162 25.259 12.76C30.2441 5.55397 31.5426 3.67705 36.3724 1.85331C41.6918 -0.996585 52.8937 -5.67644 55.146 -1.59671C55.2569 -0.992981 54.3785 1.04078 49.9775 4.34602C46.6564 6.84027 35.6084 24.4025 26.6716 38.6086C20.8052 47.934 15.8486 55.8132 14.5845 57.0348C11.3947 60.1174 14.4319 66.4246 21.3662 63.2779L21.5412 63.1985C29.138 59.7498 80.9443 36.2319 91.6158 50.3681C89.5093 53.6678 81.057 61.0461 64.1003 64.1623C53.5123 66.7321 30.3864 71.4813 22.5867 69.9189C24.0598 73.3929 27.6237 80.9763 30.0942 83.518C31.2025 84.6583 34.0461 89.0976 37.4583 94.4244C43.5531 103.939 51.4619 116.286 54.5353 117.722C73.1008 109.733 113.021 95.9892 124.179 104.923C129.229 106.284 136.609 109.879 125.732 113.375C108.173 118.891 71.2358 128.882 63.9613 124.727L60.9333 125.283C80.8178 142.641 118.165 177.802 108.475 179.582Z" fill="#212121" fill-opacity="0.08"/>
<path fill-rule="evenodd" clip-rule="evenodd" d="M711.09 703.351C709.845 705.966 708.643 708.491 704.082 706.109C699.482 704.518 680.085 695.257 680.663 686.379C681.594 681.17 683.08 670.536 681.579 669.672C681.127 669.412 680.738 668.869 680.337 668.31C679.07 666.544 677.688 664.617 673.875 670.964C673.172 672.848 672.21 678.071 673.991 683.889C674.539 686.493 674.177 691.536 668.343 690.874C662.939 689.74 651.97 686.884 651.331 684.523C651.111 683.711 650.62 682.854 650.054 681.87C648.566 679.278 646.568 675.799 647.67 669.896C647.986 662.942 650.489 647.685 657.973 642.295C657.027 641.437 653.746 640.793 648.191 645.085C645.765 646.831 640.374 650.957 638.215 653.484C638.151 653.559 637.496 655.11 637.594 655.147C637.692 655.184 634.461 664.965 632.326 664.168C629.658 663.172 615.654 656.906 614.834 632.633C614.548 624.163 616.447 608.153 639.776 595.341C638.426 594.206 633.547 593.092 624.827 597.718C620.516 600.781 610.832 608.33 606.581 614.018C604.434 616.374 599.713 619.79 598.001 614.604C595.86 608.121 597.882 579.703 599.36 575.329C599.423 575.141 599.487 574.951 599.552 574.759C603.21 563.931 609.203 546.189 618.716 536.711C622.655 529.214 635.325 515.025 654.495 518.241C661.355 518.528 676.154 520.491 680.467 526.041C683.084 523.103 690.484 517.126 699.148 516.723C709.977 516.219 765.839 532.525 769.864 559.412C770.663 562.363 769.792 567.342 759.918 563.656C751.98 559.809 734.573 553.362 728.454 558.352C727.316 558.685 726.041 559.724 730.044 561.219C735.048 563.086 758.045 576.457 762.011 580.448C765.603 584.062 775.524 603.3 771.204 611.819C769.57 613.482 765.39 615.786 761.747 611.699C761.603 609.371 759.87 604.102 754.099 601.645L731.37 591.266C733.943 592.858 739.142 596.917 740.803 598.576C740.91 598.684 741.18 598.869 741.574 599.139C745.706 601.976 763.534 614.217 752.585 645.408C751.646 647.584 748.867 651.295 745.261 648.736C739.904 644.084 728.521 634.531 725.852 633.535C729.532 638.95 736.85 650.295 736.689 652.356C736.66 652.727 736.684 653.314 736.715 654.068C736.899 658.552 737.327 668.952 728.248 674.969C724.703 678.697 717.413 686.686 716.619 688.814C716.342 689.555 715.911 690.473 715.409 691.542C714.108 694.313 712.33 698.099 711.529 702.448C711.379 702.745 711.234 703.049 711.09 703.351ZM693.774 649.219C692.127 645.826 688.782 638.566 688.577 636.671C688.497 635.932 688.17 636.648 687.571 637.959C686.248 640.853 683.598 646.651 679.353 646.109C673.186 645.323 677.903 632.686 684.179 627.073L677.632 607.958C674.046 611.797 665.373 619.825 659.378 621.225L648.223 624.638C646.723 624.583 644.422 623.825 647.215 621.231C647.691 620.787 648.214 620.241 648.812 619.616C652.589 615.667 659.37 608.578 676.624 604.551C674.827 596.808 671.998 577.439 675.059 561.911C671.436 562.453 663.415 563.172 660.312 561.71C657.909 561.698 652.514 561.831 650.149 562.463C647.028 563.698 640.319 565.992 638.451 565.295C636.835 564.692 638.287 562.694 639.541 560.97C640.099 560.203 640.618 559.489 640.809 558.977C641.43 557.314 652.454 551.2 656.371 551.904C659.704 552.138 667.931 553.719 674.174 558.171C674.467 558.407 675.158 558.387 675.586 556.425C675.715 555.836 675.811 554.688 675.946 553.07C676.374 547.956 677.193 538.152 680.676 526.499C681.049 525.502 682.037 524.279 683.011 527.371C684.229 531.236 683.538 554.468 683.041 555.798C684.063 553.401 688.095 547.758 696.051 544.363C698.538 543.302 700.454 542.431 701.992 541.732C706.605 539.635 707.806 539.089 710.744 539.618C714.23 539.782 721.178 540.785 721.085 543.478C720.961 543.81 719.921 544.559 716.756 544.893C714.368 545.145 703.672 550.581 695.021 554.979C689.342 557.866 684.543 560.305 683.553 560.536C681.055 561.119 680.691 565.15 685.066 565.647L685.176 565.659C689.97 566.203 722.66 569.908 723.76 580.091C721.735 581.103 715.351 582.256 706.011 578.77C699.993 576.902 687.107 572.395 683.7 569.305C683.4 571.466 682.918 576.287 683.39 578.282C683.601 579.177 683.695 582.224 683.807 585.88C684.008 592.411 684.268 600.885 685.367 602.51C696.951 604.056 720.842 609.084 723.727 616.83C725.83 619.004 728.425 622.978 721.99 621.485C711.639 619.011 690.342 613.006 687.965 608.784L686.298 608.162C691.014 622.678 699.111 651.212 693.774 649.219Z" fill="#212121" fill-opacity="0.08"/>
<path fill-rule="evenodd" clip-rule="evenodd" d="M162.621 904.684C161.264 899.863 159.954 895.208 168.603 893.115C176.402 889.947 212.194 879.914 221.551 892.126C226.27 899.967 236.445 915.501 239.383 914.915C240.266 914.739 241.391 915.003 242.549 915.274C246.21 916.13 250.203 917.065 247.938 904.462C246.708 901.208 242.012 893.315 233.07 887.771C229.391 885.006 224.12 878.03 232.467 872.249C240.792 867.57 258.321 858.799 261.84 861.143C263.052 861.95 264.667 862.505 266.524 863.143C271.411 864.821 277.974 867.075 283.261 876.013C290.769 885.424 304.884 908.131 301.28 923.669C303.489 923.708 308.493 920.81 310.836 908.899C312.004 903.864 314.323 892.356 314.256 886.606C314.254 886.437 313.34 883.671 313.171 883.735C313.001 883.799 306.069 867.389 309.755 865.996C314.362 864.253 339.723 856.464 368.431 887.123C378.448 897.821 394.206 920.821 378.43 964.06C381.48 964.001 389.099 959.895 395.181 943.946C397.304 935.05 401.312 914.197 400.369 901.953C400.48 896.442 402.735 886.621 410.869 891.421C421.037 897.42 450.766 936.711 453.822 944.086L454.22 945.047C461.789 963.306 474.191 993.223 472.602 1016.39C476.012 1030.63 475.679 1063.53 447.066 1081.17C437.81 1088.61 416.313 1102.91 404.38 1100.59C404.319 1107.4 401.494 1123.6 390.677 1133.99C377.155 1146.98 285.881 1189.36 250.026 1158.95C245.626 1156.02 241.09 1148.55 258.138 1142.1C272.851 1138.07 302.848 1126.64 305.13 1113.18C306.232 1111.45 306.708 1108.65 299.796 1111.26C291.157 1114.53 245.999 1123.31 236.293 1122.63C227.503 1122.02 192.685 1108.28 188.607 1092.27C188.84 1088.24 191.656 1080.49 201.052 1081.66C203.89 1084.52 212.145 1089.41 222.455 1086.03L263.857 1073.66C258.696 1074.52 247.307 1075.16 243.256 1074.89C242.993 1074.87 242.431 1074.94 241.61 1075.03C233.002 1076.05 195.859 1080.41 174.594 1027.35C173.338 1023.45 172.729 1015.45 180.335 1014.68C192.606 1014.63 218.299 1014.11 222.907 1012.36C211.952 1009.51 189.508 1003.07 187.371 1000.21C186.986 999.69 186.287 998.954 185.388 998.008C180.041 992.381 167.644 979.332 172.609 961.162C172.978 952.273 173.369 933.575 171.979 929.9C171.496 928.622 171.012 926.936 170.448 924.973C168.986 919.885 166.988 912.931 163.079 906.36C162.936 905.801 162.778 905.242 162.621 904.684ZM246.799 955.423C252.807 957.964 265.428 963.604 267.853 965.838C268.797 966.708 268.408 965.404 267.695 963.016C266.122 957.742 262.969 947.178 269.111 943.049C278.033 937.051 286.283 958.869 284.506 973.322L314.792 990.746C315.089 981.665 317.235 961.341 323.445 952.693L334.078 935.548C336.092 933.912 339.951 932.278 339.27 938.835C339.154 939.955 339.096 941.261 339.029 942.755C338.61 952.196 337.856 969.145 319.985 994.033C331.141 1002.06 356.877 1024.05 370.576 1047.75C374.674 1042.92 384.295 1032.85 389.998 1031.22C393.139 1028.5 400.011 1022.18 402.368 1018.67C405.024 1013.5 411.144 1002.88 414.37 1001.66C417.159 1000.6 417.543 1004.86 417.875 1008.53C418.023 1010.16 418.16 1011.68 418.494 1012.57C419.58 1015.44 412.194 1035.95 406.293 1039.49C401.689 1042.98 389.18 1050.29 375.985 1051.61C375.337 1051.64 374.459 1052.45 376.136 1055.49C376.639 1056.4 377.822 1058.01 379.487 1060.27C384.754 1067.41 394.852 1081.1 403.586 1100.24C404.238 1101.96 404.343 1104.67 399.555 1101.76C393.569 1098.12 368.015 1067.09 367.146 1064.79C368.546 1069.08 369.724 1081.01 363.235 1094.49C361.207 1098.7 359.704 1102.02 358.498 1104.68C354.882 1112.66 353.94 1114.74 349.514 1117.4C344.79 1121.15 334.605 1127.76 331.659 1124.15C331.442 1123.58 331.943 1121.42 335.682 1117.38C338.504 1114.33 346.234 1095.08 352.487 1079.5C356.592 1069.28 360.06 1060.64 361.086 1059.21C363.673 1055.61 359.557 1049.95 353.297 1054.28L353.139 1054.39C346.281 1059.14 299.514 1091.54 286.487 1079.54C287.97 1075.92 294.967 1067.15 311.093 1061.05C321.051 1056.63 342.956 1047.82 350.909 1047.97C348.839 1044.81 343.976 1037.99 341.091 1035.93C339.797 1035 336.206 1031.14 331.896 1026.51C324.198 1018.24 314.21 1007.51 310.929 1006.64C294.091 1017.82 257.271 1038.48 244.695 1031.69C239.484 1031.25 231.58 1029.03 241.656 1023.65C257.947 1015.08 292.503 998.649 300.403 1001.44L303.282 1000.35C280.615 986.825 237.584 958.907 246.799 955.423Z" fill="#212121" fill-opacity="0.08"/>
<path d="M518.714 -33.067C521.173 -30.0496 527.274 -23.7932 532.003 -22.9076C537.915 -21.8005 562.617 -8.99604 565.731 -2.35404C568.227 2.06306 571.16 12.5474 562.928 19.1478C559.552 23.9974 548.276 30.9569 530.176 19.998C530.08 21.6812 530.572 25.534 533.311 27.4798C536.736 29.9119 545.728 36.4013 548.678 36.7449C551.628 37.0885 583.922 50.9565 585.885 61.8301C588.546 67.2233 591.808 79.5759 583.567 85.8404C579.639 90.9845 566.994 98.1196 547.843 85.5072C542.283 81.7298 530.714 73.0944 528.921 68.7711C527.794 68.5202 525.902 69.0175 527.35 73.0136C529.161 78.0088 547.772 98.9547 553.318 102.172C558.864 105.39 589.188 124.351 591.517 133.114C593.722 137.119 597.167 146.833 593.311 153.656C588.49 162.185 581.095 168.679 571.836 168.079C563.858 168.287 545.903 166.148 537.906 155.935C537.781 156.498 537.899 158.876 539.373 163.88C541.216 170.135 546.396 207.816 526.825 214.627C518.812 218.897 499.648 223.064 487.093 205.574C482.152 198.699 472.781 181.911 474.818 169.757C474.951 169.474 474.799 169.002 473.128 169.381C471.039 169.856 454.309 172.811 446.533 164.609C443.823 162.719 438.191 157.263 437.345 150.562C436.287 142.186 441.915 132.375 449.32 126.301C456.726 120.226 469.922 110.64 471.558 108.916C473.194 107.193 493.344 90.2833 497.712 80.5058C499.19 78.0865 501.958 72.4963 501.208 69.4905C499.837 70.6465 496.771 73.3872 495.471 75.1017C493.846 77.2448 478.304 93.6149 466.569 94.7599C461.416 95.8741 450.056 96.3651 445.842 89.4155C442.675 86.1363 437.216 77.6223 440.71 69.8003C442.005 65.705 447.325 55.9309 458.254 49.5966C464.208 46.1452 465.104 45.5031 463.972 46.0146C461.997 47.0253 460.171 47.9631 458.652 48.7459C460.664 47.6738 463.025 46.4418 463.972 46.0146C472.413 41.6934 483.579 36.0384 485.198 35.4515C487.695 34.5463 494.659 27.6428 496.164 20.8808C492.993 22.784 486.313 26.5989 484.969 26.6338C483.289 26.6773 466.581 30.4725 462.993 21.7419C459.076 16.5214 453.465 4.34176 462.361 -2.61196C465.909 -6.20555 475.748 -14.5564 486.72 -19.211C490.599 -20.8524 498.764 -24.6498 500.391 -26.7089C502.426 -29.2828 501.984 -30.1117 504.051 -31.4258C506.117 -32.74 512.77 -35.4338 518.714 -33.067Z" fill="#212121" fill-opacity="0.08"/>
<path d="M405.316 -39.7181C405.789 -36.2164 407.546 -28.481 410.786 -25.5533C414.837 -21.8938 427.888 -0.270334 427.149 6.3473C426.987 10.9497 424.287 20.4561 414.785 21.6623C409.873 23.8159 397.845 23.8569 389.03 6.79239C388.157 8.04963 386.711 11.2654 387.91 14.0704C389.407 17.5767 393.291 26.8633 395.412 28.528C397.533 30.1927 415.955 56.2382 412.32 65.5859C411.822 71.0223 408.491 82.1307 399.142 83.0727C393.662 85.1922 380.492 84.7206 371.647 65.8777C369.134 60.3176 364.272 48.1481 364.934 43.9515C364.181 43.223 362.481 42.711 361.707 46.4909C360.74 51.2158 365.216 76.2534 367.984 81.3733C370.751 86.4932 385.235 115.548 382.883 123.435C382.691 127.58 380.752 136.734 374.532 140.187C366.757 144.503 357.953 146.025 351.07 141.17C344.797 137.548 331.912 127.38 330.564 115.683C330.2 116.06 329.164 117.956 327.933 122.529C326.394 128.244 312.538 159.868 294.16 155.861C285.933 155.367 269.123 149.507 267.696 130.016C267.131 122.352 267.836 104.914 275.176 96.472C275.413 96.3154 275.519 95.8776 274.046 95.3792C272.204 94.7562 257.852 89.1118 255.722 79.0764C254.52 76.3281 252.747 69.4344 255.269 63.8462C258.422 56.861 267.429 51.9354 276.042 50.7441C284.654 49.5529 299.415 48.389 301.498 47.8308C303.581 47.2725 327.196 43.7362 335.213 38.2387C337.504 37.0665 342.297 34.0517 343.141 31.3693C341.532 31.6143 337.859 32.2821 336.04 32.9929C333.766 33.8813 313.974 39.1845 304.348 34.507C299.83 32.9262 290.804 27.9203 290.837 20.5429C289.94 16.5033 289.751 7.32457 296.165 2.92655C299.108 0.370109 307.861 -4.67328 319.323 -4.39523C325.569 -4.24373 326.567 -4.31592 325.448 -4.45707C323.44 -4.61086 321.582 -4.75052 320.035 -4.86499C322.1 -4.74099 324.513 -4.57496 325.448 -4.45707C334.031 -3.79955 345.355 -2.88341 346.887 -2.56997C349.249 -2.08653 357.913 -4.1288 362.284 -8.64942C358.926 -8.68014 351.947 -8.89409 350.89 -9.50414C349.569 -10.2667 334.836 -15.2507 336.198 -23.71C335.641 -29.6082 337.073 -41.6961 347.255 -42.8615C351.706 -43.9609 363.281 -45.7601 373.981 -44.1612C377.762 -43.5926 385.883 -42.6611 388.119 -43.4835C390.913 -44.5115 390.964 -45.3625 393.187 -45.3999C395.41 -45.4373 401.837 -44.3683 405.316 -39.7181Z" fill="#212121" fill-opacity="0.08"/>
<path d="M800.312 707.216C803.217 705.183 809.305 700.06 810.425 695.825C811.824 690.53 825.1 668.951 831.34 666.566C835.517 664.594 845.234 662.629 850.679 670.545C854.858 673.934 860.427 684.639 849.267 700.345C850.79 700.545 854.321 700.355 856.271 697.997C858.708 695.049 865.201 687.316 865.71 684.659C866.219 682.003 880.966 653.601 890.972 652.543C896.047 650.486 907.483 648.348 912.622 656.25C917.032 660.16 922.668 672.118 909.937 688.67C906.136 693.467 897.522 703.398 893.477 704.738C893.174 705.744 893.499 707.496 897.225 706.447C901.882 705.136 922.145 689.631 925.436 684.809C928.728 679.987 947.97 653.712 956.083 652.182C959.867 650.447 968.919 647.966 974.858 651.923C982.282 656.87 987.687 664.018 986.525 672.387C986.181 679.646 983.041 695.809 973.233 702.39C973.736 702.542 975.904 702.593 980.546 701.588C986.349 700.331 1020.91 698.14 1025.79 716.368C1029.14 723.929 1031.64 741.611 1014.92 751.846C1008.35 755.874 992.48 763.265 981.579 760.605C981.33 760.465 980.891 760.572 981.124 762.115C981.416 764.043 982.984 779.434 975.017 785.949C973.12 788.284 967.789 793.035 961.647 793.356C953.97 793.758 945.436 787.993 940.414 780.863C935.391 773.733 927.565 761.109 926.109 759.508C924.653 757.907 910.64 738.481 902.052 733.862C899.954 732.359 895.062 729.472 892.282 729.953C893.24 731.275 895.525 734.242 896.995 735.537C898.833 737.156 912.663 752.361 912.92 763.095C913.588 767.849 913.277 778.199 906.684 781.562C903.495 784.219 895.399 788.609 888.529 784.914C884.896 783.465 876.375 777.982 871.351 767.635C868.614 761.997 868.09 761.14 868.479 762.203C869.265 764.064 869.995 765.784 870.605 767.217C869.766 765.318 868.804 763.091 868.479 762.203C865.118 754.249 860.727 743.732 860.302 742.222C859.647 739.894 853.841 733.109 847.801 731.291C849.318 734.299 852.337 740.62 852.279 741.842C852.207 743.37 854.539 758.797 846.371 761.473C841.369 764.683 829.934 768.965 824.212 760.424C821.185 756.962 814.258 747.469 810.762 737.195C809.53 733.562 806.626 725.894 804.865 724.279C802.663 722.26 801.881 722.606 800.825 720.642C799.769 718.677 797.767 712.456 800.312 707.216Z" fill="#212121" fill-opacity="0.08"/>
<path d="M1186.06 936.402C1182.6 942.989 1176.19 958.408 1178.19 967.382C1180.68 978.6 1176.74 1031.62 1167.41 1042.08C1161.52 1049.78 1145.3 1062.81 1127.52 1053.31C1116.47 1051.02 1095.77 1036.43 1101.43 996.399C1098.4 997.494 1092 1001.25 1090.64 1007.53C1088.94 1015.37 1084.29 1036.05 1085.9 1041.49C1087.51 1046.93 1087.4 1114.09 1069.77 1125.7C1062.3 1134.43 1043.04 1149.44 1025.85 1139.67C1013.86 1136.63 991.823 1119.77 999.598 1076.65C1002.06 1064.04 1008.54 1037.23 1014.79 1030.83C1014.38 1028.66 1012.09 1025.71 1006.16 1031.26C998.74 1038.19 975.917 1086.62 974.429 1098.78C972.942 1110.94 962.404 1178.47 948.756 1189.14C943.376 1196.02 928.895 1209.37 914.01 1207.72C895.404 1205.66 878.438 1197.55 872.537 1180.83C866.181 1166.96 856.453 1133.81 868.391 1112.09C867.306 1112.29 863.217 1114.28 855.532 1120.63C845.927 1128.57 783.61 1165.97 756.943 1136.7C743.422 1125.83 721.706 1095.29 743.005 1060.09C751.373 1046.25 773.831 1017.17 796.716 1011.62C797.314 1011.64 798.029 1011.02 796.108 1008.37C793.705 1005.06 775.946 977.881 784.516 958.058C785.802 951.876 791.158 937.882 802.296 931.362C816.218 923.212 837.682 925.732 853.918 934.18C870.154 942.629 896.911 958.616 901.167 960.196C905.424 961.776 950.27 984.478 970.73 984.809C976.091 985.588 987.993 986.253 992.71 982.677C989.65 981.137 982.531 977.808 978.542 976.812C973.556 975.566 933.119 960.555 922.293 940.796C916.464 932.578 907.069 912.987 916.114 900.363C919.497 892.336 930.356 876.349 946.724 876.614C954.892 875.812 976.062 877.819 995.4 892.262C1005.94 900.132 1007.74 901.224 1005.99 899.618C1002.73 896.908 999.711 894.404 997.194 892.322C1000.59 895.052 1004.53 898.276 1005.99 899.618C1019.92 911.205 1038.24 926.575 1040.49 928.979C1043.96 932.688 1061.32 939.738 1074.33 937.303C1068.6 933.16 1056.88 924.288 1055.81 921.954C1054.48 919.035 1035.26 892.529 1047.9 879.666C1054.13 868.863 1071.32 849.857 1090.22 860.263C1099.2 863.798 1121.26 874.814 1137.68 890.595C1143.48 896.178 1156.28 907.671 1161.12 908.984C1167.17 910.625 1168.3 909.226 1172.16 911.87C1176.02 914.514 1185.75 924.18 1186.06 936.402Z" fill="#212121" fill-opacity="0.08"/>
<path fill-rule="evenodd" clip-rule="evenodd" d="M416.5 371.096C430.88 359.93 447.784 346.804 459.932 346.778C473.842 345.588 505.588 345.3 532.409 354.291C543.264 356.755 567.993 356.014 580.497 342.497C588.867 333.449 598.146 319.163 584.225 303.908C574.473 296.747 574.074 296.797 553.007 299.413C548.799 299.935 543.767 300.56 537.672 301.25C517.397 301.694 491.671 303.032 478.149 305.811C476.799 306.292 475.256 306.818 473.556 307.397C456.037 313.368 421.814 325.031 408.797 352.535C408.471 354.996 407.626 357.1 406.296 356.189C403.996 354.614 410.725 339.545 414.223 332.4C418.839 319.262 430.316 290.232 439.297 279.208C450.523 265.43 472.157 225.983 455.74 204.605C449.818 196.973 433.146 188.062 413.834 213.477C389.693 245.245 381.46 306.985 385.422 318.642L390.892 353.393C385.313 347.585 373.461 334.542 370.686 328.826C363.344 318.035 348.474 293.583 347.734 282.105C346.808 267.757 330.274 221.256 297.71 213.867C284.68 210.51 259.748 210.174 264.26 235.683C264.261 239.46 269.254 250.193 289.215 262.906C298.311 271.718 317.356 293.503 320.768 310.15C325.629 322.82 340.737 346.12 359.639 362.404C362.005 364.442 364.742 367.016 367.616 369.719C376.347 377.929 386.343 387.329 391.051 386.523C395.793 387.175 405.393 379.72 416.5 371.096ZM430.181 252.002C431.632 249.186 435.056 239.665 435.818 236.813C414.918 262.313 409.044 281.87 406.129 291.575C405.514 293.624 405.03 295.234 404.565 296.369C401.896 302.875 397.536 324.89 399.154 337.307C400.723 349.356 401.313 347.283 402.127 344.421L402.202 344.157C402.435 343.343 402.566 342.295 402.739 340.912L402.74 340.912L402.74 340.912L402.74 340.911C403.075 338.233 403.568 334.3 405.258 328.392C405.028 313.948 413.059 291.022 415.876 285.065C418.924 278.62 422.583 269.853 425.492 262.883C427.657 257.696 429.407 253.503 430.181 252.002ZM481.123 329.74C449.736 329.678 425.612 345.9 417.474 354.018C415.818 355.742 416.059 354.637 416.386 353.869C423.84 341.527 434.553 336.007 443.478 331.408C445.211 330.515 446.877 329.657 448.439 328.79C458.041 323.46 489.403 321.123 491.579 321.423C492.27 321.518 495.268 321.573 499.182 321.644C507.597 321.799 520.245 322.031 523.303 322.905C527.783 324.187 554.921 321.934 556.564 321.273C558.207 320.613 573.76 318.762 559.401 323.216C558.82 323.396 556.102 324.028 552.908 324.771L552.907 324.772C547.937 325.928 541.817 327.352 540.817 327.754C539.174 328.415 520.357 329.817 481.123 329.74ZM305.995 247.331C313.559 256.28 326.743 277.014 328.876 280.855C330.595 283.953 332.709 288.554 335.254 294.092L335.254 294.092L335.254 294.093C343.75 312.587 357.05 341.537 376.532 359.914C378.323 361.935 382.29 365.762 383.826 364.909C378.73 358.443 365.48 341.524 363.717 338.64C345.866 309.434 344.381 303.697 342.595 296.795C342.19 295.229 341.77 293.605 341.139 291.633C338.149 282.276 329.201 265.601 321.395 257.875C315.91 252.447 312.33 250.674 309.421 249.233C308.19 248.624 307.079 248.073 305.995 247.331Z" fill="#212121" fill-opacity="0.08"/>
<path d="M596.633 512.175C576.863 509.846 557.231 506.46 537.808 502.139C540.684 501.871 543.564 501.627 546.44 501.333C566.328 499.3 587.022 497.549 605.009 488.057C608.634 486.144 606.155 480.536 602.294 481.54C574.422 488.791 545.687 492.102 516.967 491.489C538.998 479.44 558.637 462.595 577.457 446.21C580.462 443.594 576.436 438.165 573.179 440.597C557.881 452.025 541.911 462.442 525.633 472.374C539.384 458.817 551.911 443.888 564.212 429.096C567.09 425.637 562.458 420.689 559.21 424.035C539.92 443.911 519.429 462.603 497.862 479.969C517.786 451.992 535.228 422.309 549.801 391.158C551.734 387.022 546.283 383.74 543.666 387.553C529.45 408.282 515.868 429.437 502.927 450.979C511.423 429.352 519.919 407.724 528.416 386.097C530.094 381.825 523.234 380.065 521.547 384.256C513.724 403.689 505.565 422.985 497.111 442.151C503.219 420.661 508.157 398.839 511.807 376.779C512.539 372.348 506.143 370.424 504.937 374.938C497.551 402.601 490.165 430.265 482.779 457.928C484.544 434.421 482.65 410.555 480.653 387.118C480.27 382.617 473.361 382.532 473.539 387.17C474.609 415.079 474.805 443.013 474.209 470.934C473.981 472.5 473.738 474.061 473.467 475.623C467.025 449 460.582 422.379 454.139 395.756C453.06 391.293 446.268 393.175 447.277 397.639C451.959 418.344 456.643 439.049 461.325 459.753C452.415 443.003 442.397 426.853 431.217 411.472C428.539 407.818 422.359 411.324 425.057 415.034C435.689 429.549 444.891 445.084 452.423 461.434C453.546 463.872 454.617 466.333 455.661 468.803C441.976 456.741 427.749 445.299 412.998 434.546C410.209 432.513 405.998 436.595 408.117 439.399C421.015 456.472 436.521 471.313 453.916 483.459C455.127 484.563 456.335 485.667 457.559 486.758C438.179 479.661 418.801 472.563 399.422 465.465C395.699 464.102 393.03 470.336 396.698 471.975C405.54 475.924 414.402 479.875 423.318 483.705C412.62 483.09 401.879 483.107 391.169 483.812C386.538 484.117 386.704 490.498 391.219 490.934C413.385 493.071 435.443 496.219 457.316 500.4C460.439 500.997 463.607 501.579 466.769 502.202C458.082 516.169 448.796 529.745 438.893 542.855C425.11 559.039 411.329 575.223 397.546 591.407C394.617 594.849 399.332 599.818 402.548 596.469C417.525 580.863 431.548 564.362 444.582 547.11C455.184 534.661 465.786 522.211 476.388 509.762C492.309 529.864 509.436 548.97 526.59 568.022C529.686 571.463 534.55 566.48 531.649 563.013C518.092 546.813 504.532 530.615 490.975 514.416C510.085 525.533 529.194 536.649 548.305 547.766C552.28 550.08 555.746 544.089 551.909 541.623C542.232 535.407 532.596 529.115 522.934 522.863C539.86 529.26 556.785 535.656 573.712 542.053C577.439 543.462 580.033 537.292 576.436 535.542C558.139 526.646 539.842 517.75 521.545 508.854C546.365 513.766 571.457 517.266 596.688 519.295C601.298 519.669 601.082 512.699 596.633 512.175Z" fill="#212121" fill-opacity="0.08"/>
<path d="M119.006 1041.53C94.6858 1029.86 71.0078 1016.9 48.0072 1002.84C51.8122 1003.75 55.6099 1004.71 59.4265 1005.59C85.812 1011.72 113.108 1018.56 140.333 1014.29C145.819 1013.43 145.103 1005.15 139.714 1004.74C100.801 1001.8 62.514 993.429 25.9679 980.033C59.499 974.261 92.0691 961.29 123.388 948.55C128.388 946.516 125.611 937.789 120.368 939.476C95.7412 947.409 70.6954 953.751 45.4684 959.335C69.0479 947.995 91.6611 934.358 113.923 920.797C119.131 917.627 115.367 909.251 109.734 912.113C76.2803 929.122 41.8059 944.087 6.53581 956.878C44.3596 929.763 79.7506 899.371 112.107 865.838C116.402 861.385 110.854 854.785 105.826 858.524C78.5024 878.854 51.804 900.009 25.757 921.941C46.1431 897.947 66.5293 873.954 86.9174 849.962C90.943 845.223 82.9227 839.955 78.9193 844.586C60.3596 866.061 41.4291 887.214 22.1776 908.071C39.4421 883.205 55.3533 857.401 69.7175 830.725C72.6017 825.366 65.2476 820.092 61.7194 825.349C40.106 857.567 18.4925 889.785 -3.12096 922.002C9.46248 892.645 17.5125 861.22 25.2432 830.3C26.7277 824.362 17.9096 821.22 16.1006 827.243C5.21933 863.488 -6.79424 899.382 -19.8177 934.911C-20.7965 936.819 -21.7945 938.713 -22.8264 940.596C-19.3959 903.64 -15.9667 866.687 -12.5362 829.731C-11.9609 823.537 -21.493 822.968 -22.1591 829.132C-25.2489 857.729 -28.3355 886.326 -31.424 914.922C-35.4908 889.538 -41.2416 864.438 -48.8201 839.814C-50.6478 833.953 -60.11 835.735 -58.2801 841.675C-51.0236 864.949 -46.0494 888.903 -43.5729 913.168C-43.2036 916.786 -42.9112 920.411 -42.6573 924.035C-54.9041 902.565 -68.1175 881.652 -82.3048 861.392C-84.9875 857.561 -92.1775 860.945 -90.6924 865.47C-81.6552 893.018 -68.2949 918.85 -51.3294 942.057C-50.2617 944.003 -49.1971 945.95 -48.1082 947.885C-69.8346 930.279 -91.5578 912.672 -113.283 895.064C-117.456 891.683 -123.615 898.503 -119.632 902.213C-110.033 911.159 -100.407 920.113 -90.6595 928.938C-104.103 923.453 -117.879 918.759 -131.917 914.96C-137.987 913.317 -140.577 921.57 -134.98 924.112C-107.504 936.583 -80.612 950.303 -54.4085 965.266C-50.6672 967.402 -46.8624 969.539 -43.0828 971.726C-60.3511 985.816 -78.2148 999.141 -96.6642 1011.6C-121.438 1026.29 -146.209 1040.99 -170.983 1055.68C-176.249 1058.81 -172.386 1067.25 -166.794 1064.37C-140.743 1050.94 -115.522 1035.94 -91.2404 1019.55C-72.1843 1008.25 -53.1282 996.943 -34.072 985.64C-22.4887 1018.4 -8.92271 1050.41 4.70055 1082.36C7.15963 1088.13 15.5814 1083.88 13.3854 1078.16C3.11905 1051.44 -7.15048 1024.73 -17.4168 998.01C2.19936 1020.65 21.8136 1043.29 41.4298 1065.93C45.5097 1070.64 52.5836 1064.49 48.747 1059.64C39.071 1047.42 29.4824 1035.13 19.8417 1022.87C38.7306 1038.5 57.6176 1054.13 76.5064 1069.76C80.6662 1073.21 86.6999 1066.44 82.857 1062.61C63.3095 1043.18 43.7601 1023.74 24.2126 1004.3C53.8713 1021.5 84.4995 1037 115.951 1050.68C121.697 1053.18 124.48 1044.15 119.006 1041.53Z" fill="#212121" fill-opacity="0.08"/>
<path fill-rule="evenodd" clip-rule="evenodd" d="M1173.4 45.9967C1158.64 21.8472 1141.3 -6.54089 1142.59 -23.705C1142.38 -43.7586 1145.44 -88.6885 1161.54 -123.472C1166.34 -137.953 1167.97 -173.13 1149.57 -195.439C1137.25 -210.373 1117.37 -228.391 1093.53 -213.982C1081.98 -202.673 1082.01 -202.093 1083.52 -171.441C1083.82 -165.32 1084.18 -157.999 1084.52 -149.154C1082.95 -120.369 1082.08 -83.5781 1084.66 -63.5276C1085.21 -61.4545 1085.81 -59.0952 1086.48 -56.4955C1093.29 -29.6998 1106.59 22.6421 1145.4 50.4873C1148.96 51.7956 1151.95 53.7121 1150.47 55.2771C1147.91 57.9832 1126.6 43.2957 1116.54 35.8968C1097.82 24.8582 1056.61 -1.33781 1041.47 -17.8133C1022.55 -38.4076 967.215 -82.5321 934.137 -66.7032C922.321 -60.9665 907.454 -40.4887 942.513 -4.47136C986.338 40.5503 1075.76 73.4206 1093.25 71.8358L1144.69 76.069C1135.58 81.9492 1115.19 94.1978 1106.53 96.1496C1089.93 102.805 1052.53 115.391 1035.65 112.487C1014.56 108.857 944.717 116.207 930.33 159.651C923.989 176.897 920.759 211.99 958.572 214.396C964.099 215.693 980.349 212.335 1001.14 188.521C1015.03 178.708 1048.99 159.309 1073.72 160.218C1092.79 157.712 1128.54 144.394 1154.44 123.303C1157.68 120.664 1161.74 117.684 1166.01 114.555C1178.98 105.051 1193.83 94.1695 1193.17 87.2424C1194.65 80.7714 1184.79 64.6482 1173.4 45.9967ZM1119.99 -59.4935C1116.45 -15.1902 1137.54 24.4578 1148.52 38.7439C1150.86 41.6756 1149.27 40.9554 1148.18 40.2289C1130.94 25.4562 1124.05 8.42897 1118.3 -5.7574C1117.18 -8.51265 1116.11 -11.1607 1115.01 -13.6643C1108.27 -29.0585 1108.3 -74.1519 1108.97 -77.1218C1109.19 -78.0647 1109.6 -82.2797 1110.13 -87.7825C1111.28 -99.6126 1113.01 -117.395 1114.63 -121.412C1116.99 -127.297 1116.68 -166.396 1115.89 -168.944C1115.11 -171.491 1114.11 -194.092 1119.04 -172.281C1119.24 -171.4 1119.87 -167.343 1120.61 -162.577L1120.61 -162.577C1121.75 -155.16 1123.16 -146.027 1123.64 -144.476C1124.43 -141.929 1124.41 -114.873 1119.99 -59.4935ZM1000.67 -14.3015C996.709 -17.3204 983.156 -25.4314 979.068 -27.4884C1014.08 10.8005 1042.04 25.8242 1055.92 33.2803L1055.92 33.2804C1058.85 34.8546 1061.15 36.0914 1062.76 37.1387C1071.99 43.1463 1103.72 56.8778 1122.06 58.8664C1139.86 60.7959 1136.89 59.2498 1132.79 57.1152C1132.67 57.05 1132.54 56.9842 1132.42 56.9179C1131.25 56.3095 1129.73 55.7632 1127.73 55.0428L1127.73 55.0423L1127.73 55.0422C1123.84 53.6467 1118.15 51.5977 1109.69 47.1778C1088.53 42.5328 1055.87 23.3041 1047.47 17.2762C1038.37 10.7543 1025.95 2.571 1016.07 -3.93585L1016.07 -3.93606C1008.72 -8.77795 1002.78 -12.6916 1000.67 -14.3015ZM980.197 159.465C994.119 151.863 1025.9 140.378 1031.75 138.688C1036.48 137.325 1043.44 135.923 1051.82 134.236L1051.82 134.236C1079.81 128.601 1123.62 119.779 1152.65 98.5913C1155.8 96.7565 1161.84 92.4714 1160.76 90.0083C1150.74 94.9811 1124.53 107.871 1120.12 109.368C1075.43 124.528 1066.87 124.651 1056.58 124.798C1054.25 124.832 1051.82 124.866 1048.87 125.078C1034.85 126.082 1009.47 132.98 997.314 141.346C988.77 147.224 985.783 151.669 983.356 155.281L983.355 155.282C982.329 156.81 981.402 158.189 980.197 159.465Z" fill="#3E5047" fill-opacity="0.08"/>
</g>
<defs>
<filter id="filter0_f_742_1469" x="791.048" y="251.809" width="306.878" height="381.309" filterUnits="userSpaceOnUse" color-interpolation-filters="sRGB">
<feFlood flood-opacity="0" result="BackgroundImageFix"/>
<feBlend mode="normal" in="SourceGraphic" in2="BackgroundImageFix" result="shape"/>
<feGaussianBlur stdDeviation="2" result="effect1_foregroundBlur_742_1469"/>
</filter>
<clipPath id="clip0_742_1469">
<rect width="1037.34" height="1026" fill="white"/>
</clipPath>
</defs>
</svg>
